<svg xmlns="http://www.w3.org/2000/svg" xmlns:xlink="http://www.w3.org/1999/xlink" width="500" zoomAndPan="magnify" viewBox="0 0 375 187.499995" height="250" preserveAspectRatio="xMidYMid meet" version="1.0"><defs><g/></defs><g fill="#000000" fill-opacity="1"><g transform="translate(35.990605, 116.080595)"><g><path d="M 27.71875 -45.539062 L 21.691406 -51.75 L 1.890625 -30.78125 L 21.691406 -9.898438 L 27.71875 -16.199219 L 13.769531 -30.78125 Z M 27.71875 -45.539062 "/></g></g></g><g fill="#000000" fill-opacity="1"><g transform="translate(77.298214, 116.080595)"><g><path d="M 39.960938 -63 L 29.25 -63 L 0 0.0898438 L 10.441406 0.0898438 Z M 39.960938 -63 "/></g></g></g><g fill="#000000" fill-opacity="1"><g transform="translate(127.874931, 116.080595)"><g><path d="M 75.332031 0 L 75.332031 -63.089844 L 64.621094 -63.089844 L 41.671875 -14.039062 L 17.730469 -63.089844 L 7.019531 -63.089844 L 7.019531 0 L 17.550781 0 L 17.550781 -39.511719 L 36.808594 0 L 46.710938 0 L 64.800781 -38.699219 L 64.800781 0 Z M 75.332031 0 "/></g></g></g><g fill="#000000" fill-opacity="1"><g transform="translate(220.207613, 116.080595)"><g><path d="M 36.179688 -7.289062 L 38.96875 0 L 50.308594 0 L 25.109375 -64.800781 L 0 0 L 11.339844 0 L 14.039062 -7.289062 Z M 17.460938 -16.378906 L 25.109375 -38.25 L 32.761719 -16.378906 Z M 17.460938 -16.378906 "/></g></g></g><g fill="#000000" fill-opacity="1"><g transform="translate(280.413388, 116.080595)"><g><path d="M 7.921875 -36.449219 C 4.859375 -36.449219 2.339844 -33.839844 2.339844 -30.691406 C 2.339844 -27.628906 4.859375 -25.109375 7.921875 -25.109375 C 11.160156 -25.109375 13.679688 -27.628906 13.679688 -30.691406 C 13.679688 -33.839844 11.160156 -36.449219 7.921875 -36.449219 Z M 7.378906 -10.441406 C 4.320312 -10.441406 1.800781 -7.921875 1.800781 -4.859375 C 1.800781 -1.800781 4.320312 0.71875 7.378906 0.71875 L 7.378906 8.460938 C 13.410156 4.679688 18 -10.441406 7.378906 -10.441406 Z M 7.378906 -10.441406 "/></g></g></g><g fill="#000000" fill-opacity="1"><g transform="translate(306.602464, 116.080595)"><g><path d="M 21.148438 0 L 21.148438 -25.648438 L 32.851562 -31.5 L 21.148438 -37.351562 L 21.148438 -63 L 3.601562 -63 L 3.601562 -52.46875 L 10.621094 -52.46875 L 10.621094 -10.53125 L 3.601562 -10.53125 L 3.601562 0 Z M 21.148438 0 "/></g></g></g><g fill="#000000" fill-opacity="1"><g transform="translate(43.21988, 128.869229)"><g><path d="M 1.203125 0 L 1.203125 -5.8125 L 5.53125 -5.8125 L 5.53125 -4.953125 L 2.109375 -4.953125 L 2.109375 -3.296875 L 5.15625 -3.296875 L 5.15625 -2.421875 L 2.109375 -2.421875 L 2.109375 0 Z M 1.203125 0 "/></g></g></g><g fill="#000000" fill-opacity="1"><g transform="translate(52.912383, 128.869229)"><g><path d="M 6.453125 -5.828125 L 6.453125 -2.546875 C 6.453125 -2.046875 6.335938 -1.597656 6.109375 -1.203125 C 5.890625 -0.816406 5.578125 -0.507812 5.171875 -0.28125 C 4.773438 -0.0625 4.3125 0.046875 3.78125 0.046875 C 3.257812 0.046875 2.796875 -0.0625 2.390625 -0.28125 C 1.984375 -0.507812 1.664062 -0.816406 1.4375 -1.203125 C 1.21875 -1.597656 1.109375 -2.046875 1.109375 -2.546875 L 1.109375 -5.828125 L 2.015625 -5.828125 L 2.015625 -2.59375 C 2.015625 -2.25 2.09375 -1.941406 2.25 -1.671875 C 2.414062 -1.398438 2.628906 -1.191406 2.890625 -1.046875 C 3.160156 -0.898438 3.457031 -0.828125 3.78125 -0.828125 C 4.125 -0.828125 4.429688 -0.898438 4.703125 -1.046875 C 4.972656 -1.191406 5.1875 -1.398438 5.34375 -1.671875 C 5.507812 -1.941406 5.59375 -2.25 5.59375 -2.59375 L 5.59375 -5.828125 Z M 6.453125 -5.828125 "/></g></g></g><g fill="#000000" fill-opacity="1"><g transform="translate(63.792567, 128.869229)"><g><path d="M 5.484375 -0.859375 L 5.484375 0 L 1.203125 0 L 1.203125 -5.8125 L 2.109375 -5.8125 L 2.109375 -0.859375 Z M 5.484375 -0.859375 "/></g></g></g><g fill="#000000" fill-opacity="1"><g transform="translate(73.476759, 128.869229)"><g><path d="M 5.484375 -0.859375 L 5.484375 0 L 1.203125 0 L 1.203125 -5.8125 L 2.109375 -5.8125 L 2.109375 -0.859375 Z M 5.484375 -0.859375 "/></g></g></g><g fill="#000000" fill-opacity="1"><g transform="translate(83.16095, 128.869229)"><g><path d="M 0.765625 -1.984375 L 0.765625 -2.796875 L 3.5 -2.796875 L 3.5 -1.984375 Z M 0.765625 -1.984375 "/></g></g></g><g fill="#000000" fill-opacity="1"><g transform="translate(90.752156, 128.869229)"><g><path d="M 1.359375 -1.78125 C 1.648438 -1.4375 1.953125 -1.171875 2.265625 -0.984375 C 2.578125 -0.804688 2.960938 -0.71875 3.421875 -0.71875 C 3.660156 -0.71875 3.890625 -0.75 4.109375 -0.8125 C 4.335938 -0.882812 4.523438 -0.984375 4.671875 -1.109375 C 4.816406 -1.242188 4.890625 -1.40625 4.890625 -1.59375 C 4.890625 -1.875 4.742188 -2.070312 4.453125 -2.1875 C 4.160156 -2.3125 3.75 -2.414062 3.21875 -2.5 C 2.5625 -2.59375 2.039062 -2.773438 1.65625 -3.046875 C 1.269531 -3.316406 1.078125 -3.707031 1.078125 -4.21875 C 1.078125 -4.570312 1.179688 -4.875 1.390625 -5.125 C 1.597656 -5.375 1.878906 -5.566406 2.234375 -5.703125 C 2.585938 -5.835938 2.976562 -5.90625 3.40625 -5.90625 C 3.9375 -5.90625 4.394531 -5.816406 4.78125 -5.640625 C 5.164062 -5.460938 5.46875 -5.207031 5.6875 -4.875 L 5.078125 -4.234375 C 4.890625 -4.492188 4.648438 -4.703125 4.359375 -4.859375 C 4.078125 -5.015625 3.75 -5.09375 3.375 -5.09375 C 2.988281 -5.09375 2.664062 -5.019531 2.40625 -4.875 C 2.144531 -4.738281 2.015625 -4.546875 2.015625 -4.296875 C 2.015625 -3.992188 2.148438 -3.78125 2.421875 -3.65625 C 2.703125 -3.53125 3.070312 -3.429688 3.53125 -3.359375 C 3.832031 -3.316406 4.117188 -3.257812 4.390625 -3.1875 C 4.660156 -3.113281 4.90625 -3.015625 5.125 -2.890625 C 5.34375 -2.773438 5.515625 -2.625 5.640625 -2.4375 C 5.765625 -2.257812 5.828125 -2.035156 5.828125 -1.765625 C 5.828125 -1.390625 5.726562 -1.0625 5.53125 -0.78125 C 5.332031 -0.507812 5.046875 -0.296875 4.671875 -0.140625 C 4.304688 0.00390625 3.875 0.078125 3.375 0.078125 C 2.832031 0.078125 2.34375 -0.0078125 1.90625 -0.1875 C 1.476562 -0.363281 1.101562 -0.648438 0.78125 -1.046875 Z M 1.359375 -1.78125 "/></g></g></g><g fill="#000000" fill-opacity="1"><g transform="translate(100.702126, 128.869229)"><g><path d="M 2.546875 0 L 2.546875 -4.953125 L 0.59375 -4.953125 L 0.59375 -5.8125 L 5.453125 -5.8125 L 5.453125 -4.953125 L 3.453125 -4.953125 L 3.453125 0 Z M 2.546875 0 "/></g></g></g><g fill="#000000" fill-opacity="1"><g transform="translate(110.062405, 128.869229)"><g><path d="M 5.6875 0 L 5.0625 -1.390625 L 2.078125 -1.390625 L 1.453125 0 L 0.53125 0 L 3.09375 -5.8125 L 4.09375 -5.8125 L 6.65625 0 Z M 3.109375 -3.75 L 2.453125 -2.265625 L 4.6875 -2.265625 L 4 -3.796875 C 3.851562 -4.140625 3.707031 -4.503906 3.5625 -4.890625 C 3.488281 -4.679688 3.414062 -4.484375 3.34375 -4.296875 C 3.269531 -4.109375 3.191406 -3.925781 3.109375 -3.75 Z M 3.109375 -3.75 "/></g></g></g><g fill="#000000" fill-opacity="1"><g transform="translate(120.56054, 128.869229)"><g><path d="M 6.265625 -0.796875 C 6.117188 -0.660156 5.925781 -0.523438 5.6875 -0.390625 C 5.445312 -0.253906 5.171875 -0.140625 4.859375 -0.046875 C 4.546875 0.0351562 4.21875 0.078125 3.875 0.078125 C 3.4375 0.078125 3.03125 0.0078125 2.65625 -0.125 C 2.28125 -0.269531 1.953125 -0.472656 1.671875 -0.734375 C 1.390625 -0.992188 1.164062 -1.304688 1 -1.671875 C 0.84375 -2.046875 0.765625 -2.457031 0.765625 -2.90625 C 0.765625 -3.332031 0.847656 -3.722656 1.015625 -4.078125 C 1.179688 -4.441406 1.410156 -4.753906 1.703125 -5.015625 C 1.992188 -5.285156 2.328125 -5.492188 2.703125 -5.640625 C 3.085938 -5.796875 3.488281 -5.875 3.90625 -5.875 C 4.257812 -5.875 4.59375 -5.820312 4.90625 -5.71875 C 5.21875 -5.625 5.492188 -5.5 5.734375 -5.34375 C 5.984375 -5.195312 6.179688 -5.039062 6.328125 -4.875 L 5.765625 -4.1875 C 5.503906 -4.414062 5.21875 -4.601562 4.90625 -4.75 C 4.59375 -4.90625 4.242188 -4.984375 3.859375 -4.984375 C 3.585938 -4.984375 3.320312 -4.9375 3.0625 -4.84375 C 2.800781 -4.75 2.566406 -4.609375 2.359375 -4.421875 C 2.148438 -4.242188 1.984375 -4.023438 1.859375 -3.765625 C 1.742188 -3.515625 1.6875 -3.226562 1.6875 -2.90625 C 1.6875 -2.445312 1.789062 -2.054688 2 -1.734375 C 2.21875 -1.421875 2.5 -1.1875 2.84375 -1.03125 C 3.195312 -0.882812 3.570312 -0.8125 3.96875 -0.8125 C 4.25 -0.8125 4.503906 -0.847656 4.734375 -0.921875 C 4.960938 -0.992188 5.164062 -1.085938 5.34375 -1.203125 C 5.53125 -1.316406 5.6875 -1.425781 5.8125 -1.53125 Z M 6.265625 -0.796875 "/></g></g></g><g fill="#000000" fill-opacity="1"><g transform="translate(130.925786, 128.869229)"><g><path d="M 2.109375 0 L 1.203125 0 L 1.203125 -5.8125 L 2.109375 -5.8125 L 2.109375 -2.796875 L 3.40625 -3.90625 L 5.625 -5.8125 L 6.875 -5.8125 L 4.09375 -3.453125 L 6.828125 0 L 5.671875 0 L 3.421875 -2.875 L 2.109375 -1.75 Z M 2.109375 0 "/></g></g></g><g fill="#000000" fill-opacity="1"><g transform="translate(141.905635, 128.869229)"><g/></g></g><g fill="#000000" fill-opacity="1"><g transform="translate(148.50849, 128.869229)"><g><path d="M 9.0625 -5.8125 L 6.90625 0 L 6.28125 0 L 4.734375 -3.625 L 3.1875 0 L 2.53125 0 L 0.515625 -5.8125 L 1.484375 -5.8125 L 2.671875 -2.296875 C 2.722656 -2.148438 2.769531 -2 2.8125 -1.84375 C 2.863281 -1.6875 2.90625 -1.535156 2.9375 -1.390625 C 2.988281 -1.535156 3.039062 -1.6875 3.09375 -1.84375 C 3.15625 -2 3.222656 -2.15625 3.296875 -2.3125 L 4.34375 -4.8125 L 5.1875 -4.8125 L 6.21875 -2.3125 C 6.351562 -1.988281 6.46875 -1.6875 6.5625 -1.40625 C 6.59375 -1.550781 6.632812 -1.703125 6.6875 -1.859375 C 6.738281 -2.023438 6.789062 -2.1875 6.84375 -2.34375 L 8.109375 -5.8125 Z M 9.0625 -5.8125 "/></g></g></g><g fill="#000000" fill-opacity="1"><g transform="translate(161.40691, 128.869229)"><g><path d="M 1.203125 -5.8125 L 5.515625 -5.8125 L 5.515625 -4.953125 L 2.109375 -4.953125 L 2.109375 -3.421875 L 5.0625 -3.421875 L 5.0625 -2.546875 L 2.109375 -2.546875 L 2.109375 -0.859375 L 5.515625 -0.859375 L 5.515625 0 L 1.203125 0 Z M 1.203125 -5.8125 "/></g></g></g><g fill="#000000" fill-opacity="1"><g transform="translate(171.265517, 128.869229)"><g><path d="M 4.046875 -5.8125 C 4.703125 -5.8125 5.195312 -5.6875 5.53125 -5.4375 C 5.875 -5.195312 6.046875 -4.835938 6.046875 -4.359375 C 6.046875 -4.097656 5.972656 -3.863281 5.828125 -3.65625 C 5.691406 -3.445312 5.488281 -3.285156 5.21875 -3.171875 C 5.414062 -3.109375 5.597656 -3.015625 5.765625 -2.890625 C 5.941406 -2.765625 6.082031 -2.601562 6.1875 -2.40625 C 6.289062 -2.21875 6.34375 -1.988281 6.34375 -1.71875 C 6.34375 -1.375 6.28125 -1.09375 6.15625 -0.875 C 6.03125 -0.65625 5.863281 -0.476562 5.65625 -0.34375 C 5.445312 -0.21875 5.21875 -0.128906 4.96875 -0.078125 C 4.71875 -0.0234375 4.460938 0 4.203125 0 L 1.203125 0 L 1.203125 -5.8125 Z M 4.015625 -4.953125 L 2.109375 -4.953125 L 2.109375 -3.4375 L 4.125 -3.4375 C 4.382812 -3.4375 4.613281 -3.503906 4.8125 -3.640625 C 5.019531 -3.773438 5.125 -3.960938 5.125 -4.203125 C 5.125 -4.472656 5.015625 -4.664062 4.796875 -4.78125 C 4.585938 -4.894531 4.328125 -4.953125 4.015625 -4.953125 Z M 4.171875 -2.5625 L 2.109375 -2.5625 L 2.109375 -0.859375 L 4.203125 -0.859375 C 4.566406 -0.859375 4.863281 -0.925781 5.09375 -1.0625 C 5.320312 -1.207031 5.4375 -1.429688 5.4375 -1.734375 C 5.4375 -1.941406 5.367188 -2.109375 5.234375 -2.234375 C 5.109375 -2.359375 4.945312 -2.441406 4.75 -2.484375 C 4.550781 -2.535156 4.359375 -2.5625 4.171875 -2.5625 Z M 4.171875 -2.5625 "/></g></g></g><g fill="#000000" fill-opacity="1"><g transform="translate(181.705513, 128.869229)"><g/></g></g><g fill="#000000" fill-opacity="1"><g transform="translate(188.308368, 128.869229)"><g><path d="M 3.859375 -5.8125 C 4.359375 -5.8125 4.796875 -5.734375 5.171875 -5.578125 C 5.546875 -5.429688 5.859375 -5.222656 6.109375 -4.953125 C 6.367188 -4.691406 6.5625 -4.382812 6.6875 -4.03125 C 6.8125 -3.675781 6.875 -3.300781 6.875 -2.90625 C 6.875 -2.375 6.757812 -1.890625 6.53125 -1.453125 C 6.3125 -1.015625 5.976562 -0.660156 5.53125 -0.390625 C 5.082031 -0.128906 4.523438 0 3.859375 0 L 1.203125 0 L 1.203125 -5.8125 Z M 3.8125 -0.859375 C 4.3125 -0.859375 4.71875 -0.953125 5.03125 -1.140625 C 5.34375 -1.328125 5.570312 -1.570312 5.71875 -1.875 C 5.863281 -2.1875 5.9375 -2.53125 5.9375 -2.90625 C 5.9375 -3.269531 5.863281 -3.609375 5.71875 -3.921875 C 5.570312 -4.234375 5.34375 -4.484375 5.03125 -4.671875 C 4.71875 -4.859375 4.3125 -4.953125 3.8125 -4.953125 L 2.109375 -4.953125 L 2.109375 -0.859375 Z M 3.8125 -0.859375 "/></g></g></g><g fill="#000000" fill-opacity="1"><g transform="translate(199.279917, 128.869229)"><g><path d="M 1.203125 -5.8125 L 5.515625 -5.8125 L 5.515625 -4.953125 L 2.109375 -4.953125 L 2.109375 -3.421875 L 5.0625 -3.421875 L 5.0625 -2.546875 L 2.109375 -2.546875 L 2.109375 -0.859375 L 5.515625 -0.859375 L 5.515625 0 L 1.203125 0 Z M 1.203125 -5.8125 "/></g></g></g><g fill="#000000" fill-opacity="1"><g transform="translate(209.138524, 128.869229)"><g><path d="M 6.53125 -5.8125 L 4.03125 0 L 3.046875 0 L 0.515625 -5.8125 L 1.53125 -5.8125 L 3.015625 -2.3125 C 3.097656 -2.113281 3.191406 -1.894531 3.296875 -1.65625 C 3.398438 -1.425781 3.492188 -1.203125 3.578125 -0.984375 C 3.660156 -1.203125 3.75 -1.425781 3.84375 -1.65625 C 3.9375 -1.882812 4.023438 -2.101562 4.109375 -2.3125 L 5.484375 -5.8125 Z M 6.53125 -5.8125 "/></g></g></g><g fill="#000000" fill-opacity="1"><g transform="translate(219.50377, 128.869229)"><g><path d="M 1.203125 -5.8125 L 5.515625 -5.8125 L 5.515625 -4.953125 L 2.109375 -4.953125 L 2.109375 -3.421875 L 5.0625 -3.421875 L 5.0625 -2.546875 L 2.109375 -2.546875 L 2.109375 -0.859375 L 5.515625 -0.859375 L 5.515625 0 L 1.203125 0 Z M 1.203125 -5.8125 "/></g></g></g><g fill="#000000" fill-opacity="1"><g transform="translate(229.362366, 128.869229)"><g><path d="M 5.484375 -0.859375 L 5.484375 0 L 1.203125 0 L 1.203125 -5.8125 L 2.109375 -5.8125 L 2.109375 -0.859375 Z M 5.484375 -0.859375 "/></g></g></g><g fill="#000000" fill-opacity="1"><g transform="translate(239.04656, 128.869229)"><g><path d="M 7.21875 -2.90625 C 7.21875 -2.488281 7.132812 -2.097656 6.96875 -1.734375 C 6.8125 -1.367188 6.585938 -1.050781 6.296875 -0.78125 C 6.015625 -0.507812 5.675781 -0.296875 5.28125 -0.140625 C 4.894531 0.00390625 4.46875 0.078125 4 0.078125 C 3.519531 0.078125 3.082031 0.00390625 2.6875 -0.140625 C 2.300781 -0.296875 1.960938 -0.507812 1.671875 -0.78125 C 1.390625 -1.050781 1.164062 -1.367188 1 -1.734375 C 0.84375 -2.097656 0.765625 -2.488281 0.765625 -2.90625 C 0.765625 -3.332031 0.84375 -3.722656 1 -4.078125 C 1.164062 -4.441406 1.390625 -4.757812 1.671875 -5.03125 C 1.960938 -5.300781 2.300781 -5.515625 2.6875 -5.671875 C 3.082031 -5.828125 3.519531 -5.90625 4 -5.90625 C 4.46875 -5.90625 4.894531 -5.828125 5.28125 -5.671875 C 5.675781 -5.515625 6.015625 -5.300781 6.296875 -5.03125 C 6.585938 -4.757812 6.8125 -4.441406 6.96875 -4.078125 C 7.132812 -3.722656 7.21875 -3.332031 7.21875 -2.90625 Z M 6.296875 -2.90625 C 6.296875 -3.3125 6.195312 -3.671875 6 -3.984375 C 5.800781 -4.304688 5.53125 -4.5625 5.1875 -4.75 C 4.84375 -4.9375 4.445312 -5.03125 4 -5.03125 C 3.539062 -5.03125 3.132812 -4.9375 2.78125 -4.75 C 2.4375 -4.5625 2.164062 -4.304688 1.96875 -3.984375 C 1.78125 -3.671875 1.6875 -3.3125 1.6875 -2.90625 C 1.6875 -2.5 1.78125 -2.132812 1.96875 -1.8125 C 2.164062 -1.5 2.4375 -1.25 2.78125 -1.0625 C 3.132812 -0.882812 3.539062 -0.796875 4 -0.796875 C 4.445312 -0.796875 4.84375 -0.882812 5.1875 -1.0625 C 5.53125 -1.25 5.800781 -1.503906 6 -1.828125 C 6.195312 -2.148438 6.296875 -2.507812 6.296875 -2.90625 Z M 6.296875 -2.90625 "/></g></g></g><g fill="#000000" fill-opacity="1"><g transform="translate(250.350312, 128.869229)"><g><path d="M 4.140625 -5.8125 C 4.472656 -5.8125 4.773438 -5.734375 5.046875 -5.578125 C 5.328125 -5.421875 5.546875 -5.207031 5.703125 -4.9375 C 5.867188 -4.664062 5.953125 -4.363281 5.953125 -4.03125 C 5.953125 -3.6875 5.863281 -3.375 5.6875 -3.09375 C 5.519531 -2.8125 5.289062 -2.585938 5 -2.421875 C 4.71875 -2.253906 4.40625 -2.171875 4.0625 -2.171875 L 2.109375 -2.171875 L 2.109375 0 L 1.203125 0 L 1.203125 -5.8125 Z M 4 -3.046875 C 4.1875 -3.046875 4.359375 -3.085938 4.515625 -3.171875 C 4.671875 -3.265625 4.789062 -3.382812 4.875 -3.53125 C 4.96875 -3.6875 5.015625 -3.851562 5.015625 -4.03125 C 5.015625 -4.207031 4.96875 -4.363281 4.875 -4.5 C 4.789062 -4.632812 4.671875 -4.742188 4.515625 -4.828125 C 4.359375 -4.910156 4.1875 -4.953125 4 -4.953125 L 2.109375 -4.953125 L 2.109375 -3.046875 Z M 4 -3.046875 "/></g></g></g><g fill="#000000" fill-opacity="1"><g transform="translate(260.424859, 128.869229)"><g><path d="M 1.203125 -5.8125 L 5.515625 -5.8125 L 5.515625 -4.953125 L 2.109375 -4.953125 L 2.109375 -3.421875 L 5.0625 -3.421875 L 5.0625 -2.546875 L 2.109375 -2.546875 L 2.109375 -0.859375 L 5.515625 -0.859375 L 5.515625 0 L 1.203125 0 Z M 1.203125 -5.8125 "/></g></g></g><g fill="#000000" fill-opacity="1"><g transform="translate(270.283455, 128.869229)"><g><path d="M 6.0625 -4 C 6.0625 -3.613281 5.941406 -3.265625 5.703125 -2.953125 C 5.472656 -2.640625 5.171875 -2.414062 4.796875 -2.28125 L 6.359375 0.015625 L 5.25 0 L 3.796875 -2.15625 L 2.109375 -2.15625 L 2.109375 0 L 1.203125 0 L 1.203125 -5.8125 L 4.203125 -5.8125 C 4.523438 -5.8125 4.828125 -5.734375 5.109375 -5.578125 C 5.390625 -5.429688 5.617188 -5.21875 5.796875 -4.9375 C 5.972656 -4.664062 6.0625 -4.351562 6.0625 -4 Z M 3.984375 -4.953125 L 2.109375 -4.953125 L 2.109375 -3.03125 L 4.09375 -3.03125 C 4.289062 -3.03125 4.46875 -3.070312 4.625 -3.15625 C 4.78125 -3.25 4.898438 -3.367188 4.984375 -3.515625 C 5.078125 -3.671875 5.125 -3.832031 5.125 -4 C 5.125 -4.1875 5.070312 -4.351562 4.96875 -4.5 C 4.863281 -4.644531 4.722656 -4.753906 4.546875 -4.828125 C 4.378906 -4.910156 4.191406 -4.953125 3.984375 -4.953125 Z M 3.984375 -4.953125 "/></g></g></g></svg>