<svg xmlns="http://www.w3.org/2000/svg" xmlns:xlink="http://www.w3.org/1999/xlink" width="250" zoomAndPan="magnify" viewBox="0 0 187.5 93.749997" height="125" preserveAspectRatio="xMidYMid meet" version="1.0"><defs><g/><clipPath id="3155f49e6e"><path d="M 0 0 L 187 0 L 187 93.5 L 0 93.5 Z M 0 0 " clip-rule="nonzero"/></clipPath></defs><g clip-path="url(#3155f49e6e)"><path fill="#ffffff" d="M 0 0 L 187.5 0 L 187.5 101.25 L 0 101.25 Z M 0 0 " fill-opacity="1" fill-rule="nonzero"/><path fill="#ffffff" d="M 0 0 L 187.5 0 L 187.5 93.75 L 0 93.75 Z M 0 0 " fill-opacity="1" fill-rule="nonzero"/><path fill="#ffffff" d="M 0 0 L 187.5 0 L 187.5 93.75 L 0 93.75 Z M 0 0 " fill-opacity="1" fill-rule="nonzero"/></g><g fill="#000000" fill-opacity="1"><g transform="translate(17.793289, 58.195068)"><g><path d="M 13.898438 -22.832031 L 10.875 -25.945312 L 0.949219 -15.429688 L 10.875 -4.964844 L 13.898438 -8.121094 L 6.902344 -15.429688 Z M 13.898438 -22.832031 "/></g></g></g><g fill="#000000" fill-opacity="1"><g transform="translate(38.502169, 58.195068)"><g><path d="M 20.035156 -31.585938 L 14.664062 -31.585938 L 0 0.046875 L 5.234375 0.046875 Z M 20.035156 -31.585938 "/></g></g></g><g fill="#000000" fill-opacity="1"><g transform="translate(63.857961, 58.195068)"><g><path d="M 37.765625 0 L 37.765625 -31.628906 L 32.394531 -31.628906 L 20.890625 -7.039062 L 8.890625 -31.628906 L 3.519531 -31.628906 L 3.519531 0 L 8.796875 0 L 8.796875 -19.808594 L 18.453125 0 L 23.417969 0 L 32.488281 -19.402344 L 32.488281 0 Z M 37.765625 0 "/></g></g></g><g fill="#000000" fill-opacity="1"><g transform="translate(110.147408, 58.195068)"><g><path d="M 18.136719 -3.65625 L 19.535156 0 L 25.222656 0 L 12.589844 -32.488281 L 0 0 L 5.683594 0 L 7.039062 -3.65625 Z M 8.753906 -8.210938 L 12.589844 -19.175781 L 16.421875 -8.210938 Z M 8.753906 -8.210938 "/></g></g></g><g fill="#000000" fill-opacity="1"><g transform="translate(140.330568, 58.195068)"><g><path d="M 3.96875 -18.273438 C 2.4375 -18.273438 1.171875 -16.964844 1.171875 -15.386719 C 1.171875 -13.851562 2.4375 -12.589844 3.96875 -12.589844 C 5.59375 -12.589844 6.859375 -13.851562 6.859375 -15.386719 C 6.859375 -16.964844 5.59375 -18.273438 3.96875 -18.273438 Z M 3.699219 -5.234375 C 2.164062 -5.234375 0.902344 -3.96875 0.902344 -2.4375 C 0.902344 -0.902344 2.164062 0.359375 3.699219 0.359375 L 3.699219 4.242188 C 6.722656 2.347656 9.023438 -5.234375 3.699219 -5.234375 Z M 3.699219 -5.234375 "/></g></g></g><g fill="#000000" fill-opacity="1"><g transform="translate(153.460023, 58.195068)"><g><path d="M 10.601562 0 L 10.601562 -12.859375 L 16.46875 -15.792969 L 10.601562 -18.726562 L 10.601562 -31.585938 L 1.804688 -31.585938 L 1.804688 -26.304688 L 5.324219 -26.304688 L 5.324219 -5.277344 L 1.804688 -5.277344 L 1.804688 0 Z M 10.601562 0 "/></g></g></g><g fill="#000000" fill-opacity="1"><g transform="translate(21.417565, 64.606439)"><g><path d="M 0.609375 0 L 0.609375 -2.90625 L 2.765625 -2.90625 L 2.765625 -2.484375 L 1.046875 -2.484375 L 1.046875 -1.640625 L 2.578125 -1.640625 L 2.578125 -1.21875 L 1.046875 -1.21875 L 1.046875 0 Z M 0.609375 0 "/></g></g></g><g fill="#000000" fill-opacity="1"><g transform="translate(26.27674, 64.606439)"><g><path d="M 3.21875 -2.90625 L 3.21875 -1.265625 C 3.21875 -1.015625 3.160156 -0.789062 3.046875 -0.59375 C 2.941406 -0.40625 2.789062 -0.253906 2.59375 -0.140625 C 2.394531 -0.0234375 2.160156 0.03125 1.890625 0.03125 C 1.628906 0.03125 1.394531 -0.0234375 1.1875 -0.140625 C 0.988281 -0.253906 0.832031 -0.40625 0.71875 -0.59375 C 0.613281 -0.789062 0.5625 -1.015625 0.5625 -1.265625 L 0.5625 -2.90625 L 1 -2.90625 L 1 -1.296875 C 1 -1.128906 1.039062 -0.976562 1.125 -0.84375 C 1.207031 -0.707031 1.316406 -0.597656 1.453125 -0.515625 C 1.585938 -0.441406 1.734375 -0.40625 1.890625 -0.40625 C 2.066406 -0.40625 2.222656 -0.441406 2.359375 -0.515625 C 2.492188 -0.597656 2.597656 -0.707031 2.671875 -0.84375 C 2.753906 -0.976562 2.796875 -1.128906 2.796875 -1.296875 L 2.796875 -2.90625 Z M 3.21875 -2.90625 "/></g></g></g><g fill="#000000" fill-opacity="1"><g transform="translate(31.731338, 64.606439)"><g><path d="M 2.734375 -0.4375 L 2.734375 0 L 0.609375 0 L 0.609375 -2.90625 L 1.046875 -2.90625 L 1.046875 -0.4375 Z M 2.734375 -0.4375 "/></g></g></g><g fill="#000000" fill-opacity="1"><g transform="translate(36.586347, 64.606439)"><g><path d="M 2.734375 -0.4375 L 2.734375 0 L 0.609375 0 L 0.609375 -2.90625 L 1.046875 -2.90625 L 1.046875 -0.4375 Z M 2.734375 -0.4375 "/></g></g></g><g fill="#000000" fill-opacity="1"><g transform="translate(41.441354, 64.606439)"><g><path d="M 0.390625 -0.984375 L 0.390625 -1.40625 L 1.75 -1.40625 L 1.75 -0.984375 Z M 0.390625 -0.984375 "/></g></g></g><g fill="#000000" fill-opacity="1"><g transform="translate(45.247079, 64.606439)"><g><path d="M 0.6875 -0.890625 C 0.820312 -0.722656 0.96875 -0.59375 1.125 -0.5 C 1.289062 -0.40625 1.484375 -0.359375 1.703125 -0.359375 C 1.828125 -0.359375 1.945312 -0.375 2.0625 -0.40625 C 2.175781 -0.4375 2.269531 -0.484375 2.34375 -0.546875 C 2.414062 -0.617188 2.453125 -0.703125 2.453125 -0.796875 C 2.453125 -0.929688 2.375 -1.03125 2.21875 -1.09375 C 2.070312 -1.15625 1.867188 -1.207031 1.609375 -1.25 C 1.285156 -1.300781 1.023438 -1.390625 0.828125 -1.515625 C 0.628906 -1.648438 0.53125 -1.847656 0.53125 -2.109375 C 0.53125 -2.285156 0.582031 -2.4375 0.6875 -2.5625 C 0.789062 -2.6875 0.929688 -2.78125 1.109375 -2.84375 C 1.285156 -2.914062 1.484375 -2.953125 1.703125 -2.953125 C 1.960938 -2.953125 2.191406 -2.90625 2.390625 -2.8125 C 2.585938 -2.726562 2.738281 -2.601562 2.84375 -2.4375 L 2.546875 -2.125 C 2.453125 -2.25 2.332031 -2.347656 2.1875 -2.421875 C 2.039062 -2.503906 1.875 -2.546875 1.6875 -2.546875 C 1.488281 -2.546875 1.320312 -2.507812 1.1875 -2.4375 C 1.0625 -2.363281 1 -2.265625 1 -2.140625 C 1 -1.992188 1.066406 -1.890625 1.203125 -1.828125 C 1.347656 -1.765625 1.535156 -1.710938 1.765625 -1.671875 C 1.910156 -1.648438 2.050781 -1.617188 2.1875 -1.578125 C 2.332031 -1.546875 2.457031 -1.5 2.5625 -1.4375 C 2.675781 -1.382812 2.765625 -1.3125 2.828125 -1.21875 C 2.890625 -1.125 2.921875 -1.007812 2.921875 -0.875 C 2.921875 -0.695312 2.867188 -0.535156 2.765625 -0.390625 C 2.671875 -0.253906 2.53125 -0.144531 2.34375 -0.0625 C 2.15625 0.0078125 1.9375 0.046875 1.6875 0.046875 C 1.414062 0.046875 1.171875 0.00390625 0.953125 -0.078125 C 0.742188 -0.171875 0.554688 -0.320312 0.390625 -0.53125 Z M 0.6875 -0.890625 "/></g></g></g><g fill="#000000" fill-opacity="1"><g transform="translate(50.23533, 64.606439)"><g><path d="M 1.28125 0 L 1.28125 -2.484375 L 0.296875 -2.484375 L 0.296875 -2.90625 L 2.734375 -2.90625 L 2.734375 -2.484375 L 1.71875 -2.484375 L 1.71875 0 Z M 1.28125 0 "/></g></g></g><g fill="#000000" fill-opacity="1"><g transform="translate(54.92795, 64.606439)"><g><path d="M 2.84375 0 L 2.53125 -0.703125 L 1.046875 -0.703125 L 0.734375 0 L 0.265625 0 L 1.546875 -2.90625 L 2.046875 -2.90625 L 3.328125 0 Z M 1.5625 -1.875 L 1.234375 -1.125 L 2.34375 -1.125 L 2 -1.890625 C 1.925781 -2.066406 1.851562 -2.25 1.78125 -2.4375 C 1.75 -2.34375 1.710938 -2.242188 1.671875 -2.140625 C 1.628906 -2.046875 1.59375 -1.957031 1.5625 -1.875 Z M 1.5625 -1.875 "/></g></g></g><g fill="#000000" fill-opacity="1"><g transform="translate(60.191015, 64.606439)"><g><path d="M 3.125 -0.40625 C 3.0625 -0.332031 2.96875 -0.257812 2.84375 -0.1875 C 2.726562 -0.125 2.59375 -0.0664062 2.4375 -0.015625 C 2.28125 0.0234375 2.113281 0.046875 1.9375 0.046875 C 1.71875 0.046875 1.515625 0.0078125 1.328125 -0.0625 C 1.140625 -0.132812 0.972656 -0.234375 0.828125 -0.359375 C 0.691406 -0.492188 0.582031 -0.648438 0.5 -0.828125 C 0.425781 -1.015625 0.390625 -1.222656 0.390625 -1.453125 C 0.390625 -1.671875 0.429688 -1.867188 0.515625 -2.046875 C 0.597656 -2.222656 0.710938 -2.378906 0.859375 -2.515625 C 1.003906 -2.648438 1.171875 -2.753906 1.359375 -2.828125 C 1.546875 -2.898438 1.742188 -2.9375 1.953125 -2.9375 C 2.128906 -2.9375 2.296875 -2.910156 2.453125 -2.859375 C 2.609375 -2.804688 2.75 -2.742188 2.875 -2.671875 C 3 -2.597656 3.097656 -2.519531 3.171875 -2.4375 L 2.890625 -2.09375 C 2.753906 -2.207031 2.609375 -2.300781 2.453125 -2.375 C 2.296875 -2.445312 2.117188 -2.484375 1.921875 -2.484375 C 1.785156 -2.484375 1.648438 -2.457031 1.515625 -2.40625 C 1.390625 -2.363281 1.273438 -2.296875 1.171875 -2.203125 C 1.078125 -2.117188 1 -2.015625 0.9375 -1.890625 C 0.875 -1.765625 0.84375 -1.617188 0.84375 -1.453125 C 0.84375 -1.222656 0.894531 -1.03125 1 -0.875 C 1.113281 -0.71875 1.253906 -0.597656 1.421875 -0.515625 C 1.597656 -0.441406 1.785156 -0.40625 1.984375 -0.40625 C 2.128906 -0.40625 2.257812 -0.421875 2.375 -0.453125 C 2.488281 -0.492188 2.585938 -0.539062 2.671875 -0.59375 C 2.765625 -0.65625 2.84375 -0.710938 2.90625 -0.765625 Z M 3.125 -0.40625 "/></g></g></g><g fill="#000000" fill-opacity="1"><g transform="translate(65.387458, 64.606439)"><g><path d="M 1.046875 0 L 0.609375 0 L 0.609375 -2.90625 L 1.046875 -2.90625 L 1.046875 -1.40625 L 1.703125 -1.953125 L 2.8125 -2.90625 L 3.4375 -2.90625 L 2.046875 -1.71875 L 3.421875 0 L 2.828125 0 L 1.703125 -1.4375 L 1.046875 -0.875 Z M 1.046875 0 "/></g></g></g><g fill="#000000" fill-opacity="1"><g transform="translate(70.892022, 64.606439)"><g/></g></g><g fill="#000000" fill-opacity="1"><g transform="translate(74.202253, 64.606439)"><g><path d="M 4.53125 -2.90625 L 3.453125 0 L 3.140625 0 L 2.359375 -1.8125 L 1.59375 0 L 1.265625 0 L 0.25 -2.90625 L 0.75 -2.90625 L 1.34375 -1.15625 C 1.363281 -1.082031 1.382812 -1.003906 1.40625 -0.921875 C 1.425781 -0.835938 1.445312 -0.757812 1.46875 -0.6875 C 1.5 -0.757812 1.523438 -0.835938 1.546875 -0.921875 C 1.578125 -1.003906 1.609375 -1.082031 1.640625 -1.15625 L 2.171875 -2.40625 L 2.59375 -2.40625 L 3.109375 -1.15625 C 3.171875 -1 3.226562 -0.847656 3.28125 -0.703125 C 3.300781 -0.773438 3.320312 -0.847656 3.34375 -0.921875 C 3.375 -1.003906 3.398438 -1.085938 3.421875 -1.171875 L 4.046875 -2.90625 Z M 4.53125 -2.90625 "/></g></g></g><g fill="#000000" fill-opacity="1"><g transform="translate(80.668661, 64.606439)"><g><path d="M 0.609375 -2.90625 L 2.765625 -2.90625 L 2.765625 -2.484375 L 1.046875 -2.484375 L 1.046875 -1.703125 L 2.53125 -1.703125 L 2.53125 -1.28125 L 1.046875 -1.28125 L 1.046875 -0.4375 L 2.765625 -0.4375 L 2.765625 0 L 0.609375 0 Z M 0.609375 -2.90625 "/></g></g></g><g fill="#000000" fill-opacity="1"><g transform="translate(85.611109, 64.606439)"><g><path d="M 2.03125 -2.90625 C 2.351562 -2.90625 2.597656 -2.84375 2.765625 -2.71875 C 2.929688 -2.59375 3.015625 -2.410156 3.015625 -2.171875 C 3.015625 -2.046875 2.976562 -1.929688 2.90625 -1.828125 C 2.84375 -1.722656 2.742188 -1.644531 2.609375 -1.59375 C 2.703125 -1.550781 2.789062 -1.5 2.875 -1.4375 C 2.96875 -1.382812 3.039062 -1.304688 3.09375 -1.203125 C 3.144531 -1.109375 3.171875 -0.992188 3.171875 -0.859375 C 3.171875 -0.691406 3.140625 -0.550781 3.078125 -0.4375 C 3.015625 -0.320312 2.929688 -0.234375 2.828125 -0.171875 C 2.722656 -0.109375 2.609375 -0.0625 2.484375 -0.03125 C 2.359375 -0.0078125 2.234375 0 2.109375 0 L 0.609375 0 L 0.609375 -2.90625 Z M 2.015625 -2.484375 L 1.046875 -2.484375 L 1.046875 -1.71875 L 2.0625 -1.71875 C 2.195312 -1.71875 2.3125 -1.75 2.40625 -1.8125 C 2.507812 -1.882812 2.5625 -1.984375 2.5625 -2.109375 C 2.5625 -2.242188 2.507812 -2.335938 2.40625 -2.390625 C 2.300781 -2.453125 2.171875 -2.484375 2.015625 -2.484375 Z M 2.078125 -1.28125 L 1.046875 -1.28125 L 1.046875 -0.4375 L 2.109375 -0.4375 C 2.285156 -0.4375 2.429688 -0.46875 2.546875 -0.53125 C 2.660156 -0.601562 2.71875 -0.710938 2.71875 -0.859375 C 2.71875 -0.972656 2.679688 -1.054688 2.609375 -1.109375 C 2.546875 -1.171875 2.46875 -1.210938 2.375 -1.234375 C 2.28125 -1.265625 2.179688 -1.28125 2.078125 -1.28125 Z M 2.078125 -1.28125 "/></g></g></g><g fill="#000000" fill-opacity="1"><g transform="translate(90.845027, 64.606439)"><g/></g></g><g fill="#000000" fill-opacity="1"><g transform="translate(94.155258, 64.606439)"><g><path d="M 1.921875 -2.90625 C 2.171875 -2.90625 2.390625 -2.867188 2.578125 -2.796875 C 2.773438 -2.722656 2.9375 -2.617188 3.0625 -2.484375 C 3.1875 -2.347656 3.28125 -2.191406 3.34375 -2.015625 C 3.40625 -1.835938 3.4375 -1.648438 3.4375 -1.453125 C 3.4375 -1.191406 3.378906 -0.945312 3.265625 -0.71875 C 3.148438 -0.5 2.976562 -0.320312 2.75 -0.1875 C 2.53125 -0.0625 2.253906 0 1.921875 0 L 0.609375 0 L 0.609375 -2.90625 Z M 1.90625 -0.4375 C 2.15625 -0.4375 2.359375 -0.476562 2.515625 -0.5625 C 2.671875 -0.65625 2.785156 -0.78125 2.859375 -0.9375 C 2.929688 -1.09375 2.96875 -1.265625 2.96875 -1.453125 C 2.96875 -1.640625 2.929688 -1.804688 2.859375 -1.953125 C 2.785156 -2.109375 2.671875 -2.234375 2.515625 -2.328125 C 2.359375 -2.429688 2.15625 -2.484375 1.90625 -2.484375 L 1.046875 -2.484375 L 1.046875 -0.4375 Z M 1.90625 -0.4375 "/></g></g></g><g fill="#000000" fill-opacity="1"><g transform="translate(99.655661, 64.606439)"><g><path d="M 0.609375 -2.90625 L 2.765625 -2.90625 L 2.765625 -2.484375 L 1.046875 -2.484375 L 1.046875 -1.703125 L 2.53125 -1.703125 L 2.53125 -1.28125 L 1.046875 -1.28125 L 1.046875 -0.4375 L 2.765625 -0.4375 L 2.765625 0 L 0.609375 0 Z M 0.609375 -2.90625 "/></g></g></g><g fill="#000000" fill-opacity="1"><g transform="translate(104.598109, 64.606439)"><g><path d="M 3.265625 -2.90625 L 2.015625 0 L 1.515625 0 L 0.25 -2.90625 L 0.765625 -2.90625 L 1.515625 -1.15625 C 1.554688 -1.050781 1.597656 -0.941406 1.640625 -0.828125 C 1.691406 -0.710938 1.742188 -0.601562 1.796875 -0.5 C 1.828125 -0.601562 1.863281 -0.710938 1.90625 -0.828125 C 1.957031 -0.941406 2.003906 -1.050781 2.046875 -1.15625 L 2.734375 -2.90625 Z M 3.265625 -2.90625 "/></g></g></g><g fill="#000000" fill-opacity="1"><g transform="translate(109.794553, 64.606439)"><g><path d="M 0.609375 -2.90625 L 2.765625 -2.90625 L 2.765625 -2.484375 L 1.046875 -2.484375 L 1.046875 -1.703125 L 2.53125 -1.703125 L 2.53125 -1.28125 L 1.046875 -1.28125 L 1.046875 -0.4375 L 2.765625 -0.4375 L 2.765625 0 L 0.609375 0 Z M 0.609375 -2.90625 "/></g></g></g><g fill="#000000" fill-opacity="1"><g transform="translate(114.736996, 64.606439)"><g><path d="M 2.734375 -0.4375 L 2.734375 0 L 0.609375 0 L 0.609375 -2.90625 L 1.046875 -2.90625 L 1.046875 -0.4375 Z M 2.734375 -0.4375 "/></g></g></g><g fill="#000000" fill-opacity="1"><g transform="translate(119.592004, 64.606439)"><g><path d="M 3.609375 -1.453125 C 3.609375 -1.242188 3.566406 -1.046875 3.484375 -0.859375 C 3.410156 -0.679688 3.300781 -0.523438 3.15625 -0.390625 C 3.007812 -0.253906 2.835938 -0.144531 2.640625 -0.0625 C 2.441406 0.0078125 2.226562 0.046875 2 0.046875 C 1.757812 0.046875 1.539062 0.0078125 1.34375 -0.0625 C 1.144531 -0.144531 0.972656 -0.253906 0.828125 -0.390625 C 0.691406 -0.523438 0.582031 -0.679688 0.5 -0.859375 C 0.425781 -1.046875 0.390625 -1.242188 0.390625 -1.453125 C 0.390625 -1.660156 0.425781 -1.851562 0.5 -2.03125 C 0.582031 -2.21875 0.691406 -2.378906 0.828125 -2.515625 C 0.972656 -2.648438 1.144531 -2.753906 1.34375 -2.828125 C 1.539062 -2.910156 1.757812 -2.953125 2 -2.953125 C 2.226562 -2.953125 2.441406 -2.910156 2.640625 -2.828125 C 2.835938 -2.753906 3.007812 -2.648438 3.15625 -2.515625 C 3.300781 -2.378906 3.410156 -2.21875 3.484375 -2.03125 C 3.566406 -1.851562 3.609375 -1.660156 3.609375 -1.453125 Z M 3.15625 -1.453125 C 3.15625 -1.660156 3.101562 -1.84375 3 -2 C 2.90625 -2.15625 2.769531 -2.28125 2.59375 -2.375 C 2.414062 -2.46875 2.21875 -2.515625 2 -2.515625 C 1.769531 -2.515625 1.566406 -2.46875 1.390625 -2.375 C 1.222656 -2.28125 1.085938 -2.15625 0.984375 -2 C 0.890625 -1.84375 0.84375 -1.660156 0.84375 -1.453125 C 0.84375 -1.253906 0.890625 -1.070312 0.984375 -0.90625 C 1.085938 -0.75 1.222656 -0.625 1.390625 -0.53125 C 1.566406 -0.4375 1.769531 -0.390625 2 -0.390625 C 2.21875 -0.390625 2.414062 -0.4375 2.59375 -0.53125 C 2.769531 -0.625 2.90625 -0.75 3 -0.90625 C 3.101562 -1.070312 3.15625 -1.253906 3.15625 -1.453125 Z M 3.15625 -1.453125 "/></g></g></g><g fill="#000000" fill-opacity="1"><g transform="translate(125.258952, 64.606439)"><g><path d="M 2.078125 -2.90625 C 2.242188 -2.90625 2.394531 -2.863281 2.53125 -2.78125 C 2.664062 -2.707031 2.773438 -2.601562 2.859375 -2.46875 C 2.941406 -2.332031 2.984375 -2.179688 2.984375 -2.015625 C 2.984375 -1.847656 2.9375 -1.691406 2.84375 -1.546875 C 2.757812 -1.410156 2.644531 -1.300781 2.5 -1.21875 C 2.351562 -1.132812 2.195312 -1.09375 2.03125 -1.09375 L 1.046875 -1.09375 L 1.046875 0 L 0.609375 0 L 0.609375 -2.90625 Z M 2 -1.515625 C 2.09375 -1.515625 2.175781 -1.535156 2.25 -1.578125 C 2.332031 -1.628906 2.394531 -1.691406 2.4375 -1.765625 C 2.488281 -1.847656 2.515625 -1.929688 2.515625 -2.015625 C 2.515625 -2.097656 2.488281 -2.175781 2.4375 -2.25 C 2.394531 -2.320312 2.332031 -2.378906 2.25 -2.421875 C 2.175781 -2.460938 2.09375 -2.484375 2 -2.484375 L 1.046875 -2.484375 L 1.046875 -1.515625 Z M 2 -1.515625 "/></g></g></g><g fill="#000000" fill-opacity="1"><g transform="translate(130.309658, 64.606439)"><g><path d="M 0.609375 -2.90625 L 2.765625 -2.90625 L 2.765625 -2.484375 L 1.046875 -2.484375 L 1.046875 -1.703125 L 2.53125 -1.703125 L 2.53125 -1.28125 L 1.046875 -1.28125 L 1.046875 -0.4375 L 2.765625 -0.4375 L 2.765625 0 L 0.609375 0 Z M 0.609375 -2.90625 "/></g></g></g><g fill="#000000" fill-opacity="1"><g transform="translate(135.252101, 64.606439)"><g><path d="M 3.03125 -2 C 3.03125 -1.8125 2.96875 -1.640625 2.84375 -1.484375 C 2.726562 -1.328125 2.582031 -1.210938 2.40625 -1.140625 L 3.171875 0 L 2.625 0 L 1.90625 -1.078125 L 1.046875 -1.078125 L 1.046875 0 L 0.609375 0 L 0.609375 -2.90625 L 2.09375 -2.90625 C 2.257812 -2.90625 2.410156 -2.863281 2.546875 -2.78125 C 2.691406 -2.707031 2.804688 -2.601562 2.890625 -2.46875 C 2.984375 -2.332031 3.03125 -2.175781 3.03125 -2 Z M 2 -2.484375 L 1.046875 -2.484375 L 1.046875 -1.515625 L 2.046875 -1.515625 C 2.140625 -1.515625 2.222656 -1.535156 2.296875 -1.578125 C 2.378906 -1.628906 2.441406 -1.691406 2.484375 -1.765625 C 2.535156 -1.835938 2.5625 -1.914062 2.5625 -2 C 2.5625 -2.09375 2.535156 -2.175781 2.484375 -2.25 C 2.429688 -2.320312 2.363281 -2.378906 2.28125 -2.421875 C 2.195312 -2.460938 2.101562 -2.484375 2 -2.484375 Z M 2 -2.484375 "/></g></g></g></svg>