<svg xmlns="http://www.w3.org/2000/svg" xmlns:xlink="http://www.w3.org/1999/xlink" width="250" zoomAndPan="magnify" viewBox="0 0 187.5 93.749997" height="125" preserveAspectRatio="xMidYMid meet" version="1.0"><defs><g/></defs><g fill="#000000" fill-opacity="1"><g transform="translate(2.813376, 60.415466)"><g><path d="M 16.621094 -27.308594 L 13.007812 -31.03125 L 1.132812 -18.457031 L 13.007812 -5.9375 L 16.621094 -9.714844 L 8.257812 -18.457031 Z M 16.621094 -27.308594 "/></g></g></g><g fill="#000000" fill-opacity="1"><g transform="translate(27.584241, 60.415466)"><g><path d="M 23.960938 -37.78125 L 17.539062 -37.78125 L 0 0.0546875 L 6.261719 0.0546875 Z M 23.960938 -37.78125 "/></g></g></g><g fill="#000000" fill-opacity="1"><g transform="translate(57.913495, 60.415466)"><g><path d="M 45.171875 0 L 45.171875 -37.832031 L 38.75 -37.832031 L 24.988281 -8.417969 L 10.632812 -37.832031 L 4.210938 -37.832031 L 4.210938 0 L 10.523438 0 L 10.523438 -23.691406 L 22.074219 0 L 28.011719 0 L 38.859375 -23.207031 L 38.859375 0 Z M 45.171875 0 "/></g></g></g><g fill="#000000" fill-opacity="1"><g transform="translate(113.282479, 60.415466)"><g><path d="M 21.695312 -4.371094 L 23.371094 0 L 30.167969 0 L 15.058594 -38.859375 L 0 0 L 6.800781 0 L 8.417969 -4.371094 Z M 10.46875 -9.824219 L 15.058594 -22.9375 L 19.644531 -9.824219 Z M 10.46875 -9.824219 "/></g></g></g><g fill="#000000" fill-opacity="1"><g transform="translate(149.385974, 60.415466)"><g><path d="M 4.75 -21.859375 C 2.914062 -21.859375 1.402344 -20.292969 1.402344 -18.402344 C 1.402344 -16.570312 2.914062 -15.058594 4.75 -15.058594 C 6.691406 -15.058594 8.203125 -16.570312 8.203125 -18.402344 C 8.203125 -20.292969 6.691406 -21.859375 4.75 -21.859375 Z M 4.425781 -6.261719 C 2.589844 -6.261719 1.078125 -4.75 1.078125 -2.914062 C 1.078125 -1.078125 2.589844 0.433594 4.425781 0.433594 L 4.425781 5.074219 C 8.042969 2.804688 10.792969 -6.261719 4.425781 -6.261719 Z M 4.425781 -6.261719 "/></g></g></g><g fill="#000000" fill-opacity="1"><g transform="translate(165.090733, 60.415466)"><g><path d="M 12.683594 0 L 12.683594 -15.382812 L 19.699219 -18.890625 L 12.683594 -22.398438 L 12.683594 -37.78125 L 2.160156 -37.78125 L 2.160156 -31.464844 L 6.367188 -31.464844 L 6.367188 -6.316406 L 2.160156 -6.316406 L 2.160156 0 Z M 12.683594 0 "/></g></g></g><g fill="#000000" fill-opacity="1"><g transform="translate(7.148544, 68.084409)"><g><path d="M 0.71875 0 L 0.71875 -3.484375 L 3.3125 -3.484375 L 3.3125 -2.96875 L 1.265625 -2.96875 L 1.265625 -1.96875 L 3.09375 -1.96875 L 3.09375 -1.453125 L 1.265625 -1.453125 L 1.265625 0 Z M 0.71875 0 "/></g></g></g><g fill="#000000" fill-opacity="1"><g transform="translate(12.960831, 68.084409)"><g><path d="M 3.875 -3.5 L 3.875 -1.53125 C 3.875 -1.226562 3.804688 -0.957031 3.671875 -0.71875 C 3.535156 -0.488281 3.347656 -0.304688 3.109375 -0.171875 C 2.867188 -0.0351562 2.585938 0.03125 2.265625 0.03125 C 1.953125 0.03125 1.675781 -0.0351562 1.4375 -0.171875 C 1.195312 -0.304688 1.007812 -0.488281 0.875 -0.71875 C 0.738281 -0.957031 0.671875 -1.226562 0.671875 -1.53125 L 0.671875 -3.5 L 1.203125 -3.5 L 1.203125 -1.5625 C 1.203125 -1.351562 1.25 -1.164062 1.34375 -1 C 1.445312 -0.84375 1.578125 -0.71875 1.734375 -0.625 C 1.898438 -0.539062 2.078125 -0.5 2.265625 -0.5 C 2.472656 -0.5 2.65625 -0.539062 2.8125 -0.625 C 2.976562 -0.71875 3.109375 -0.84375 3.203125 -1 C 3.304688 -1.164062 3.359375 -1.351562 3.359375 -1.5625 L 3.359375 -3.5 Z M 3.875 -3.5 "/></g></g></g><g fill="#000000" fill-opacity="1"><g transform="translate(19.485333, 68.084409)"><g><path d="M 3.28125 -0.515625 L 3.28125 0 L 0.71875 0 L 0.71875 -3.484375 L 1.265625 -3.484375 L 1.265625 -0.515625 Z M 3.28125 -0.515625 "/></g></g></g><g fill="#000000" fill-opacity="1"><g transform="translate(25.292636, 68.084409)"><g><path d="M 3.28125 -0.515625 L 3.28125 0 L 0.71875 0 L 0.71875 -3.484375 L 1.265625 -3.484375 L 1.265625 -0.515625 Z M 3.28125 -0.515625 "/></g></g></g><g fill="#000000" fill-opacity="1"><g transform="translate(31.099938, 68.084409)"><g><path d="M 0.46875 -1.1875 L 0.46875 -1.6875 L 2.09375 -1.6875 L 2.09375 -1.1875 Z M 0.46875 -1.1875 "/></g></g></g><g fill="#000000" fill-opacity="1"><g transform="translate(35.652144, 68.084409)"><g><path d="M 0.8125 -1.0625 C 0.988281 -0.863281 1.171875 -0.707031 1.359375 -0.59375 C 1.546875 -0.488281 1.773438 -0.4375 2.046875 -0.4375 C 2.191406 -0.4375 2.332031 -0.453125 2.46875 -0.484375 C 2.601562 -0.523438 2.710938 -0.582031 2.796875 -0.65625 C 2.890625 -0.738281 2.9375 -0.835938 2.9375 -0.953125 C 2.9375 -1.117188 2.847656 -1.238281 2.671875 -1.3125 C 2.492188 -1.382812 2.242188 -1.445312 1.921875 -1.5 C 1.535156 -1.550781 1.222656 -1.65625 0.984375 -1.8125 C 0.753906 -1.976562 0.640625 -2.21875 0.640625 -2.53125 C 0.640625 -2.738281 0.703125 -2.914062 0.828125 -3.0625 C 0.953125 -3.21875 1.117188 -3.332031 1.328125 -3.40625 C 1.546875 -3.488281 1.78125 -3.53125 2.03125 -3.53125 C 2.351562 -3.53125 2.628906 -3.476562 2.859375 -3.375 C 3.097656 -3.269531 3.285156 -3.117188 3.421875 -2.921875 L 3.046875 -2.546875 C 2.929688 -2.691406 2.785156 -2.8125 2.609375 -2.90625 C 2.441406 -3.007812 2.25 -3.0625 2.03125 -3.0625 C 1.789062 -3.0625 1.59375 -3.015625 1.4375 -2.921875 C 1.28125 -2.835938 1.203125 -2.722656 1.203125 -2.578125 C 1.203125 -2.390625 1.285156 -2.257812 1.453125 -2.1875 C 1.617188 -2.113281 1.84375 -2.054688 2.125 -2.015625 C 2.300781 -1.984375 2.46875 -1.945312 2.625 -1.90625 C 2.789062 -1.863281 2.9375 -1.804688 3.0625 -1.734375 C 3.195312 -1.660156 3.300781 -1.566406 3.375 -1.453125 C 3.457031 -1.347656 3.5 -1.21875 3.5 -1.0625 C 3.5 -0.832031 3.4375 -0.632812 3.3125 -0.46875 C 3.195312 -0.300781 3.03125 -0.171875 2.8125 -0.078125 C 2.59375 0.00390625 2.332031 0.046875 2.03125 0.046875 C 1.707031 0.046875 1.414062 -0.00390625 1.15625 -0.109375 C 0.894531 -0.210938 0.664062 -0.382812 0.46875 -0.625 Z M 0.8125 -1.0625 "/></g></g></g><g fill="#000000" fill-opacity="1"><g transform="translate(41.618826, 68.084409)"><g><path d="M 1.53125 0 L 1.53125 -2.96875 L 0.359375 -2.96875 L 0.359375 -3.484375 L 3.265625 -3.484375 L 3.265625 -2.96875 L 2.0625 -2.96875 L 2.0625 0 Z M 1.53125 0 "/></g></g></g><g fill="#000000" fill-opacity="1"><g transform="translate(47.231889, 68.084409)"><g><path d="M 3.40625 0 L 3.03125 -0.84375 L 1.25 -0.84375 L 0.875 0 L 0.3125 0 L 1.859375 -3.484375 L 2.453125 -3.484375 L 4 0 Z M 1.875 -2.25 L 1.46875 -1.359375 L 2.8125 -1.359375 L 2.40625 -2.265625 C 2.3125 -2.472656 2.222656 -2.695312 2.140625 -2.9375 C 2.097656 -2.8125 2.050781 -2.691406 2 -2.578125 C 1.957031 -2.460938 1.914062 -2.351562 1.875 -2.25 Z M 1.875 -2.25 "/></g></g></g><g fill="#000000" fill-opacity="1"><g transform="translate(53.527287, 68.084409)"><g><path d="M 3.75 -0.484375 C 3.664062 -0.398438 3.550781 -0.316406 3.40625 -0.234375 C 3.257812 -0.148438 3.09375 -0.0820312 2.90625 -0.03125 C 2.726562 0.0195312 2.535156 0.046875 2.328125 0.046875 C 2.054688 0.046875 1.804688 0.00390625 1.578125 -0.078125 C 1.359375 -0.160156 1.164062 -0.28125 1 -0.4375 C 0.832031 -0.59375 0.703125 -0.78125 0.609375 -1 C 0.515625 -1.21875 0.46875 -1.46875 0.46875 -1.75 C 0.46875 -2 0.515625 -2.234375 0.609375 -2.453125 C 0.710938 -2.671875 0.847656 -2.859375 1.015625 -3.015625 C 1.191406 -3.171875 1.394531 -3.289062 1.625 -3.375 C 1.851562 -3.46875 2.09375 -3.515625 2.34375 -3.515625 C 2.550781 -3.515625 2.75 -3.484375 2.9375 -3.421875 C 3.125 -3.367188 3.289062 -3.296875 3.4375 -3.203125 C 3.582031 -3.117188 3.703125 -3.023438 3.796875 -2.921875 L 3.453125 -2.5 C 3.296875 -2.644531 3.125 -2.757812 2.9375 -2.84375 C 2.75 -2.9375 2.539062 -2.984375 2.3125 -2.984375 C 2.144531 -2.984375 1.984375 -2.953125 1.828125 -2.890625 C 1.671875 -2.835938 1.53125 -2.757812 1.40625 -2.65625 C 1.289062 -2.550781 1.195312 -2.421875 1.125 -2.265625 C 1.050781 -2.109375 1.015625 -1.9375 1.015625 -1.75 C 1.015625 -1.46875 1.078125 -1.234375 1.203125 -1.046875 C 1.335938 -0.859375 1.507812 -0.71875 1.71875 -0.625 C 1.925781 -0.53125 2.144531 -0.484375 2.375 -0.484375 C 2.550781 -0.484375 2.707031 -0.503906 2.84375 -0.546875 C 2.976562 -0.597656 3.097656 -0.65625 3.203125 -0.71875 C 3.316406 -0.789062 3.410156 -0.859375 3.484375 -0.921875 Z M 3.75 -0.484375 "/></g></g></g><g fill="#000000" fill-opacity="1"><g transform="translate(59.742997, 68.084409)"><g><path d="M 1.265625 0 L 0.71875 0 L 0.71875 -3.484375 L 1.265625 -3.484375 L 1.265625 -1.6875 L 2.03125 -2.34375 L 3.375 -3.484375 L 4.125 -3.484375 L 2.453125 -2.0625 L 4.09375 0 L 3.40625 0 L 2.046875 -1.71875 L 1.265625 -1.046875 Z M 1.265625 0 "/></g></g></g><g fill="#000000" fill-opacity="1"><g transform="translate(66.327264, 68.084409)"><g/></g></g><g fill="#000000" fill-opacity="1"><g transform="translate(70.286788, 68.084409)"><g><path d="M 5.4375 -3.484375 L 4.140625 0 L 3.765625 0 L 2.84375 -2.171875 L 1.90625 0 L 1.515625 0 L 0.3125 -3.484375 L 0.890625 -3.484375 L 1.609375 -1.375 C 1.640625 -1.289062 1.664062 -1.203125 1.6875 -1.109375 C 1.71875 -1.015625 1.742188 -0.921875 1.765625 -0.828125 C 1.796875 -0.921875 1.828125 -1.015625 1.859375 -1.109375 C 1.890625 -1.203125 1.925781 -1.296875 1.96875 -1.390625 L 2.609375 -2.890625 L 3.109375 -2.890625 L 3.734375 -1.390625 C 3.804688 -1.191406 3.875 -1.007812 3.9375 -0.84375 C 3.957031 -0.9375 3.984375 -1.03125 4.015625 -1.125 C 4.046875 -1.21875 4.078125 -1.3125 4.109375 -1.40625 L 4.859375 -3.484375 Z M 5.4375 -3.484375 "/></g></g></g><g fill="#000000" fill-opacity="1"><g transform="translate(78.021561, 68.084409)"><g><path d="M 0.71875 -3.484375 L 3.3125 -3.484375 L 3.3125 -2.96875 L 1.265625 -2.96875 L 1.265625 -2.046875 L 3.03125 -2.046875 L 3.03125 -1.53125 L 1.265625 -1.53125 L 1.265625 -0.515625 L 3.3125 -0.515625 L 3.3125 0 L 0.71875 0 Z M 0.71875 -3.484375 "/></g></g></g><g fill="#000000" fill-opacity="1"><g transform="translate(83.933455, 68.084409)"><g><path d="M 2.421875 -3.484375 C 2.816406 -3.484375 3.113281 -3.410156 3.3125 -3.265625 C 3.519531 -3.117188 3.625 -2.898438 3.625 -2.609375 C 3.625 -2.453125 3.582031 -2.3125 3.5 -2.1875 C 3.414062 -2.0625 3.289062 -1.96875 3.125 -1.90625 C 3.238281 -1.863281 3.347656 -1.804688 3.453125 -1.734375 C 3.566406 -1.660156 3.65625 -1.566406 3.71875 -1.453125 C 3.78125 -1.335938 3.8125 -1.195312 3.8125 -1.03125 C 3.8125 -0.820312 3.769531 -0.648438 3.6875 -0.515625 C 3.613281 -0.390625 3.515625 -0.285156 3.390625 -0.203125 C 3.265625 -0.128906 3.125 -0.078125 2.96875 -0.046875 C 2.820312 -0.015625 2.671875 0 2.515625 0 L 0.71875 0 L 0.71875 -3.484375 Z M 2.40625 -2.96875 L 1.265625 -2.96875 L 1.265625 -2.0625 L 2.46875 -2.0625 C 2.632812 -2.0625 2.773438 -2.097656 2.890625 -2.171875 C 3.015625 -2.253906 3.078125 -2.367188 3.078125 -2.515625 C 3.078125 -2.679688 3.007812 -2.796875 2.875 -2.859375 C 2.75 -2.929688 2.59375 -2.96875 2.40625 -2.96875 Z M 2.5 -1.546875 L 1.265625 -1.546875 L 1.265625 -0.515625 L 2.515625 -0.515625 C 2.734375 -0.515625 2.910156 -0.554688 3.046875 -0.640625 C 3.191406 -0.722656 3.265625 -0.851562 3.265625 -1.03125 C 3.265625 -1.164062 3.222656 -1.269531 3.140625 -1.34375 C 3.066406 -1.414062 2.96875 -1.46875 2.84375 -1.5 C 2.726562 -1.53125 2.613281 -1.546875 2.5 -1.546875 Z M 2.5 -1.546875 "/></g></g></g><g fill="#000000" fill-opacity="1"><g transform="translate(90.19399, 68.084409)"><g/></g></g><g fill="#000000" fill-opacity="1"><g transform="translate(94.153513, 68.084409)"><g><path d="M 2.3125 -3.484375 C 2.613281 -3.484375 2.875 -3.4375 3.09375 -3.34375 C 3.320312 -3.257812 3.507812 -3.132812 3.65625 -2.96875 C 3.8125 -2.8125 3.925781 -2.625 4 -2.40625 C 4.082031 -2.195312 4.125 -1.976562 4.125 -1.75 C 4.125 -1.425781 4.054688 -1.128906 3.921875 -0.859375 C 3.785156 -0.597656 3.582031 -0.390625 3.3125 -0.234375 C 3.039062 -0.078125 2.707031 0 2.3125 0 L 0.71875 0 L 0.71875 -3.484375 Z M 2.28125 -0.515625 C 2.582031 -0.515625 2.828125 -0.570312 3.015625 -0.6875 C 3.203125 -0.800781 3.335938 -0.945312 3.421875 -1.125 C 3.515625 -1.3125 3.5625 -1.519531 3.5625 -1.75 C 3.5625 -1.96875 3.515625 -2.164062 3.421875 -2.34375 C 3.335938 -2.53125 3.203125 -2.679688 3.015625 -2.796875 C 2.828125 -2.910156 2.582031 -2.96875 2.28125 -2.96875 L 1.265625 -2.96875 L 1.265625 -0.515625 Z M 2.28125 -0.515625 "/></g></g></g><g fill="#000000" fill-opacity="1"><g transform="translate(100.732803, 68.084409)"><g><path d="M 0.71875 -3.484375 L 3.3125 -3.484375 L 3.3125 -2.96875 L 1.265625 -2.96875 L 1.265625 -2.046875 L 3.03125 -2.046875 L 3.03125 -1.53125 L 1.265625 -1.53125 L 1.265625 -0.515625 L 3.3125 -0.515625 L 3.3125 0 L 0.71875 0 Z M 0.71875 -3.484375 "/></g></g></g><g fill="#000000" fill-opacity="1"><g transform="translate(106.644697, 68.084409)"><g><path d="M 3.921875 -3.484375 L 2.421875 0 L 1.828125 0 L 0.3125 -3.484375 L 0.921875 -3.484375 L 1.8125 -1.390625 C 1.863281 -1.265625 1.914062 -1.128906 1.96875 -0.984375 C 2.03125 -0.847656 2.085938 -0.71875 2.140625 -0.59375 C 2.191406 -0.71875 2.242188 -0.847656 2.296875 -0.984375 C 2.359375 -1.128906 2.414062 -1.265625 2.46875 -1.390625 L 3.28125 -3.484375 Z M 3.921875 -3.484375 "/></g></g></g><g fill="#000000" fill-opacity="1"><g transform="translate(112.860407, 68.084409)"><g><path d="M 0.71875 -3.484375 L 3.3125 -3.484375 L 3.3125 -2.96875 L 1.265625 -2.96875 L 1.265625 -2.046875 L 3.03125 -2.046875 L 3.03125 -1.53125 L 1.265625 -1.53125 L 1.265625 -0.515625 L 3.3125 -0.515625 L 3.3125 0 L 0.71875 0 Z M 0.71875 -3.484375 "/></g></g></g><g fill="#000000" fill-opacity="1"><g transform="translate(118.772295, 68.084409)"><g><path d="M 3.28125 -0.515625 L 3.28125 0 L 0.71875 0 L 0.71875 -3.484375 L 1.265625 -3.484375 L 1.265625 -0.515625 Z M 3.28125 -0.515625 "/></g></g></g><g fill="#000000" fill-opacity="1"><g transform="translate(124.579599, 68.084409)"><g><path d="M 4.328125 -1.75 C 4.328125 -1.488281 4.28125 -1.25 4.1875 -1.03125 C 4.09375 -0.820312 3.957031 -0.632812 3.78125 -0.46875 C 3.613281 -0.300781 3.410156 -0.171875 3.171875 -0.078125 C 2.929688 0.00390625 2.671875 0.046875 2.390625 0.046875 C 2.109375 0.046875 1.847656 0.00390625 1.609375 -0.078125 C 1.378906 -0.171875 1.175781 -0.300781 1 -0.46875 C 0.832031 -0.632812 0.703125 -0.820312 0.609375 -1.03125 C 0.515625 -1.25 0.46875 -1.488281 0.46875 -1.75 C 0.46875 -2 0.515625 -2.234375 0.609375 -2.453125 C 0.703125 -2.671875 0.832031 -2.859375 1 -3.015625 C 1.175781 -3.179688 1.378906 -3.304688 1.609375 -3.390625 C 1.847656 -3.484375 2.109375 -3.53125 2.390625 -3.53125 C 2.671875 -3.53125 2.929688 -3.484375 3.171875 -3.390625 C 3.410156 -3.304688 3.613281 -3.179688 3.78125 -3.015625 C 3.957031 -2.859375 4.09375 -2.671875 4.1875 -2.453125 C 4.28125 -2.234375 4.328125 -2 4.328125 -1.75 Z M 3.78125 -1.75 C 3.78125 -1.988281 3.71875 -2.203125 3.59375 -2.390625 C 3.476562 -2.585938 3.316406 -2.738281 3.109375 -2.84375 C 2.898438 -2.957031 2.660156 -3.015625 2.390625 -3.015625 C 2.117188 -3.015625 1.878906 -2.957031 1.671875 -2.84375 C 1.460938 -2.738281 1.300781 -2.585938 1.1875 -2.390625 C 1.070312 -2.203125 1.015625 -1.988281 1.015625 -1.75 C 1.015625 -1.5 1.070312 -1.28125 1.1875 -1.09375 C 1.300781 -0.90625 1.460938 -0.753906 1.671875 -0.640625 C 1.878906 -0.523438 2.117188 -0.46875 2.390625 -0.46875 C 2.660156 -0.46875 2.898438 -0.523438 3.109375 -0.640625 C 3.316406 -0.753906 3.476562 -0.90625 3.59375 -1.09375 C 3.71875 -1.289062 3.78125 -1.507812 3.78125 -1.75 Z M 3.78125 -1.75 "/></g></g></g><g fill="#000000" fill-opacity="1"><g transform="translate(131.358101, 68.084409)"><g><path d="M 2.484375 -3.484375 C 2.679688 -3.484375 2.863281 -3.4375 3.03125 -3.34375 C 3.195312 -3.25 3.328125 -3.117188 3.421875 -2.953125 C 3.523438 -2.796875 3.578125 -2.617188 3.578125 -2.421875 C 3.578125 -2.210938 3.523438 -2.023438 3.421875 -1.859375 C 3.316406 -1.691406 3.175781 -1.554688 3 -1.453125 C 2.820312 -1.359375 2.632812 -1.3125 2.4375 -1.3125 L 1.265625 -1.3125 L 1.265625 0 L 0.71875 0 L 0.71875 -3.484375 Z M 2.40625 -1.828125 C 2.507812 -1.828125 2.609375 -1.851562 2.703125 -1.90625 C 2.796875 -1.957031 2.867188 -2.03125 2.921875 -2.125 C 2.984375 -2.21875 3.015625 -2.316406 3.015625 -2.421875 C 3.015625 -2.523438 2.984375 -2.617188 2.921875 -2.703125 C 2.867188 -2.785156 2.796875 -2.847656 2.703125 -2.890625 C 2.609375 -2.941406 2.507812 -2.96875 2.40625 -2.96875 L 1.265625 -2.96875 L 1.265625 -1.828125 Z M 2.40625 -1.828125 "/></g></g></g><g fill="#000000" fill-opacity="1"><g transform="translate(137.399487, 68.084409)"><g><path d="M 0.71875 -3.484375 L 3.3125 -3.484375 L 3.3125 -2.96875 L 1.265625 -2.96875 L 1.265625 -2.046875 L 3.03125 -2.046875 L 3.03125 -1.53125 L 1.265625 -1.53125 L 1.265625 -0.515625 L 3.3125 -0.515625 L 3.3125 0 L 0.71875 0 Z M 0.71875 -3.484375 "/></g></g></g><g fill="#000000" fill-opacity="1"><g transform="translate(143.311375, 68.084409)"><g><path d="M 3.640625 -2.390625 C 3.640625 -2.160156 3.566406 -1.953125 3.421875 -1.765625 C 3.273438 -1.578125 3.09375 -1.445312 2.875 -1.375 L 3.8125 0 L 3.15625 0 L 2.28125 -1.296875 L 1.265625 -1.296875 L 1.265625 0 L 0.71875 0 L 0.71875 -3.484375 L 2.515625 -3.484375 C 2.710938 -3.484375 2.894531 -3.4375 3.0625 -3.34375 C 3.226562 -3.25 3.363281 -3.117188 3.46875 -2.953125 C 3.582031 -2.796875 3.640625 -2.609375 3.640625 -2.390625 Z M 2.390625 -2.96875 L 1.265625 -2.96875 L 1.265625 -1.8125 L 2.453125 -1.8125 C 2.566406 -1.8125 2.671875 -1.835938 2.765625 -1.890625 C 2.859375 -1.953125 2.929688 -2.023438 2.984375 -2.109375 C 3.046875 -2.203125 3.078125 -2.300781 3.078125 -2.40625 C 3.078125 -2.507812 3.046875 -2.601562 2.984375 -2.6875 C 2.921875 -2.78125 2.835938 -2.847656 2.734375 -2.890625 C 2.628906 -2.941406 2.515625 -2.96875 2.390625 -2.96875 Z M 2.390625 -2.96875 "/></g></g></g></svg>