<svg xmlns="http://www.w3.org/2000/svg" xmlns:xlink="http://www.w3.org/1999/xlink" width="100" zoomAndPan="magnify" viewBox="0 0 75 37.5" height="50" preserveAspectRatio="xMidYMid meet" version="1.0"><defs><g/></defs><g fill="#000000" fill-opacity="1"><g transform="translate(7.517087, 22.971741)"><g><path d="M 5.484375 -9.011719 L 4.292969 -10.242188 L 0.375 -6.089844 L 4.292969 -1.960938 L 5.484375 -3.207031 L 2.726562 -6.089844 Z M 5.484375 -9.011719 "/></g></g></g><g fill="#000000" fill-opacity="1"><g transform="translate(15.691646, 22.971741)"><g><path d="M 7.90625 -12.46875 L 5.789062 -12.46875 L 0 0.0195312 L 2.066406 0.0195312 Z M 7.90625 -12.46875 "/></g></g></g><g fill="#000000" fill-opacity="1"><g transform="translate(25.700512, 22.971741)"><g><path d="M 14.90625 0 L 14.90625 -12.484375 L 12.789062 -12.484375 L 8.246094 -2.777344 L 3.507812 -12.484375 L 1.390625 -12.484375 L 1.390625 0 L 3.472656 0 L 3.472656 -7.820312 L 7.285156 0 L 9.242188 0 L 12.824219 -7.660156 L 12.824219 0 Z M 14.90625 0 "/></g></g></g><g fill="#000000" fill-opacity="1"><g transform="translate(43.972665, 22.971741)"><g><path d="M 7.160156 -1.441406 L 7.710938 0 L 9.957031 0 L 4.96875 -12.824219 L 0 0 L 2.242188 0 L 2.777344 -1.441406 Z M 3.457031 -3.242188 L 4.96875 -7.570312 L 6.484375 -3.242188 Z M 3.457031 -3.242188 "/></g></g></g><g fill="#000000" fill-opacity="1"><g transform="translate(55.887071, 22.971741)"><g><path d="M 1.566406 -7.214844 C 0.960938 -7.214844 0.464844 -6.695312 0.464844 -6.074219 C 0.464844 -5.46875 0.960938 -4.96875 1.566406 -4.96875 C 2.207031 -4.96875 2.707031 -5.46875 2.707031 -6.074219 C 2.707031 -6.695312 2.207031 -7.214844 1.566406 -7.214844 Z M 1.460938 -2.066406 C 0.855469 -2.066406 0.355469 -1.566406 0.355469 -0.960938 C 0.355469 -0.355469 0.855469 0.140625 1.460938 0.140625 L 1.460938 1.675781 C 2.652344 0.925781 3.5625 -2.066406 1.460938 -2.066406 Z M 1.460938 -2.066406 "/></g></g></g><g fill="#000000" fill-opacity="1"><g transform="translate(61.069751, 22.971741)"><g><path d="M 4.183594 0 L 4.183594 -5.074219 L 6.5 -6.234375 L 4.183594 -7.390625 L 4.183594 -12.46875 L 0.710938 -12.46875 L 0.710938 -10.382812 L 2.101562 -10.382812 L 2.101562 -2.082031 L 0.710938 -2.082031 L 0.710938 0 Z M 4.183594 0 "/></g></g></g><g fill="#000000" fill-opacity="1"><g transform="translate(8.947723, 25.502546)"><g><path d="M 0.234375 0 L 0.234375 -1.140625 L 1.09375 -1.140625 L 1.09375 -0.984375 L 0.421875 -0.984375 L 0.421875 -0.65625 L 1.015625 -0.65625 L 1.015625 -0.484375 L 0.421875 -0.484375 L 0.421875 0 Z M 0.234375 0 "/></g></g></g><g fill="#000000" fill-opacity="1"><g transform="translate(10.865818, 25.502546)"><g><path d="M 1.265625 -1.15625 L 1.265625 -0.5 C 1.265625 -0.40625 1.242188 -0.316406 1.203125 -0.234375 C 1.160156 -0.160156 1.097656 -0.0976562 1.015625 -0.046875 C 0.941406 -0.00390625 0.851562 0.015625 0.75 0.015625 C 0.644531 0.015625 0.550781 -0.00390625 0.46875 -0.046875 C 0.394531 -0.0976562 0.332031 -0.160156 0.28125 -0.234375 C 0.238281 -0.316406 0.21875 -0.40625 0.21875 -0.5 L 0.21875 -1.15625 L 0.390625 -1.15625 L 0.390625 -0.515625 C 0.390625 -0.441406 0.40625 -0.378906 0.4375 -0.328125 C 0.46875 -0.273438 0.507812 -0.234375 0.5625 -0.203125 C 0.625 -0.171875 0.6875 -0.15625 0.75 -0.15625 C 0.8125 -0.15625 0.867188 -0.171875 0.921875 -0.203125 C 0.984375 -0.234375 1.03125 -0.273438 1.0625 -0.328125 C 1.09375 -0.378906 1.109375 -0.441406 1.109375 -0.515625 L 1.109375 -1.15625 Z M 1.265625 -1.15625 "/></g></g></g><g fill="#000000" fill-opacity="1"><g transform="translate(13.018949, 25.502546)"><g><path d="M 1.078125 -0.171875 L 1.078125 0 L 0.234375 0 L 0.234375 -1.140625 L 0.421875 -1.140625 L 0.421875 -0.171875 Z M 1.078125 -0.171875 "/></g></g></g><g fill="#000000" fill-opacity="1"><g transform="translate(14.9354, 25.502546)"><g><path d="M 1.078125 -0.171875 L 1.078125 0 L 0.234375 0 L 0.234375 -1.140625 L 0.421875 -1.140625 L 0.421875 -0.171875 Z M 1.078125 -0.171875 "/></g></g></g><g fill="#000000" fill-opacity="1"><g transform="translate(16.851851, 25.502546)"><g><path d="M 0.15625 -0.390625 L 0.15625 -0.546875 L 0.6875 -0.546875 L 0.6875 -0.390625 Z M 0.15625 -0.390625 "/></g></g></g><g fill="#000000" fill-opacity="1"><g transform="translate(18.354111, 25.502546)"><g><path d="M 0.265625 -0.34375 C 0.328125 -0.28125 0.390625 -0.226562 0.453125 -0.1875 C 0.515625 -0.15625 0.585938 -0.140625 0.671875 -0.140625 C 0.722656 -0.140625 0.769531 -0.144531 0.8125 -0.15625 C 0.851562 -0.175781 0.890625 -0.195312 0.921875 -0.21875 C 0.953125 -0.238281 0.96875 -0.269531 0.96875 -0.3125 C 0.96875 -0.363281 0.9375 -0.398438 0.875 -0.421875 C 0.820312 -0.453125 0.742188 -0.472656 0.640625 -0.484375 C 0.503906 -0.503906 0.398438 -0.539062 0.328125 -0.59375 C 0.253906 -0.65625 0.21875 -0.734375 0.21875 -0.828125 C 0.21875 -0.898438 0.234375 -0.957031 0.265625 -1 C 0.304688 -1.050781 0.363281 -1.09375 0.4375 -1.125 C 0.507812 -1.15625 0.585938 -1.171875 0.671875 -1.171875 C 0.773438 -1.171875 0.863281 -1.148438 0.9375 -1.109375 C 1.019531 -1.078125 1.082031 -1.03125 1.125 -0.96875 L 1 -0.84375 C 0.96875 -0.882812 0.921875 -0.921875 0.859375 -0.953125 C 0.804688 -0.984375 0.742188 -1 0.671875 -1 C 0.585938 -1 0.519531 -0.984375 0.46875 -0.953125 C 0.414062 -0.929688 0.390625 -0.894531 0.390625 -0.84375 C 0.390625 -0.789062 0.414062 -0.75 0.46875 -0.71875 C 0.53125 -0.695312 0.609375 -0.675781 0.703125 -0.65625 C 0.753906 -0.65625 0.804688 -0.644531 0.859375 -0.625 C 0.921875 -0.613281 0.972656 -0.59375 1.015625 -0.5625 C 1.054688 -0.539062 1.085938 -0.507812 1.109375 -0.46875 C 1.140625 -0.4375 1.15625 -0.394531 1.15625 -0.34375 C 1.15625 -0.269531 1.132812 -0.207031 1.09375 -0.15625 C 1.050781 -0.101562 0.992188 -0.0625 0.921875 -0.03125 C 0.847656 0 0.765625 0.015625 0.671875 0.015625 C 0.554688 0.015625 0.457031 0 0.375 -0.03125 C 0.289062 -0.0703125 0.21875 -0.128906 0.15625 -0.203125 Z M 0.265625 -0.34375 "/></g></g></g><g fill="#000000" fill-opacity="1"><g transform="translate(20.323157, 25.502546)"><g><path d="M 0.5 0 L 0.5 -0.984375 L 0.109375 -0.984375 L 0.109375 -1.140625 L 1.078125 -1.140625 L 1.078125 -0.984375 L 0.6875 -0.984375 L 0.6875 0 Z M 0.5 0 "/></g></g></g><g fill="#000000" fill-opacity="1"><g transform="translate(22.175507, 25.502546)"><g><path d="M 1.125 0 L 1 -0.28125 L 0.40625 -0.28125 L 0.28125 0 L 0.109375 0 L 0.609375 -1.140625 L 0.8125 -1.140625 L 1.3125 0 Z M 0.609375 -0.734375 L 0.484375 -0.453125 L 0.921875 -0.453125 L 0.796875 -0.75 C 0.765625 -0.8125 0.734375 -0.882812 0.703125 -0.96875 C 0.691406 -0.925781 0.675781 -0.882812 0.65625 -0.84375 C 0.644531 -0.8125 0.628906 -0.773438 0.609375 -0.734375 Z M 0.609375 -0.734375 "/></g></g></g><g fill="#000000" fill-opacity="1"><g transform="translate(24.253033, 25.502546)"><g><path d="M 1.234375 -0.15625 C 1.203125 -0.132812 1.160156 -0.109375 1.109375 -0.078125 C 1.066406 -0.046875 1.015625 -0.0195312 0.953125 0 C 0.898438 0.0078125 0.835938 0.015625 0.765625 0.015625 C 0.679688 0.015625 0.597656 0.00390625 0.515625 -0.015625 C 0.441406 -0.046875 0.378906 -0.0859375 0.328125 -0.140625 C 0.273438 -0.191406 0.234375 -0.253906 0.203125 -0.328125 C 0.171875 -0.398438 0.15625 -0.484375 0.15625 -0.578125 C 0.15625 -0.660156 0.171875 -0.734375 0.203125 -0.796875 C 0.234375 -0.867188 0.273438 -0.929688 0.328125 -0.984375 C 0.390625 -1.046875 0.457031 -1.085938 0.53125 -1.109375 C 0.601562 -1.140625 0.679688 -1.15625 0.765625 -1.15625 C 0.835938 -1.15625 0.90625 -1.144531 0.96875 -1.125 C 1.03125 -1.101562 1.082031 -1.078125 1.125 -1.046875 C 1.175781 -1.023438 1.21875 -1 1.25 -0.96875 L 1.140625 -0.828125 C 1.085938 -0.867188 1.03125 -0.90625 0.96875 -0.9375 C 0.90625 -0.96875 0.835938 -0.984375 0.765625 -0.984375 C 0.710938 -0.984375 0.660156 -0.972656 0.609375 -0.953125 C 0.554688 -0.929688 0.507812 -0.898438 0.46875 -0.859375 C 0.425781 -0.828125 0.390625 -0.785156 0.359375 -0.734375 C 0.335938 -0.691406 0.328125 -0.640625 0.328125 -0.578125 C 0.328125 -0.484375 0.347656 -0.40625 0.390625 -0.34375 C 0.441406 -0.28125 0.5 -0.234375 0.5625 -0.203125 C 0.632812 -0.171875 0.707031 -0.15625 0.78125 -0.15625 C 0.84375 -0.15625 0.894531 -0.160156 0.9375 -0.171875 C 0.976562 -0.191406 1.015625 -0.210938 1.046875 -0.234375 C 1.085938 -0.253906 1.117188 -0.273438 1.140625 -0.296875 Z M 1.234375 -0.15625 "/></g></g></g><g fill="#000000" fill-opacity="1"><g transform="translate(26.304261, 25.502546)"><g><path d="M 0.421875 0 L 0.234375 0 L 0.234375 -1.140625 L 0.421875 -1.140625 L 0.421875 -0.546875 L 0.671875 -0.765625 L 1.109375 -1.140625 L 1.359375 -1.140625 L 0.8125 -0.6875 L 1.34375 0 L 1.125 0 L 0.671875 -0.5625 L 0.421875 -0.34375 Z M 0.421875 0 "/></g></g></g><g fill="#000000" fill-opacity="1"><g transform="translate(28.477115, 25.502546)"><g/></g></g><g fill="#000000" fill-opacity="1"><g transform="translate(29.783786, 25.502546)"><g><path d="M 1.796875 -1.140625 L 1.359375 0 L 1.234375 0 L 0.9375 -0.71875 L 0.625 0 L 0.5 0 L 0.109375 -1.140625 L 0.296875 -1.140625 L 0.53125 -0.453125 C 0.539062 -0.421875 0.546875 -0.390625 0.546875 -0.359375 C 0.554688 -0.328125 0.566406 -0.300781 0.578125 -0.28125 C 0.585938 -0.300781 0.597656 -0.328125 0.609375 -0.359375 C 0.617188 -0.390625 0.632812 -0.421875 0.65625 -0.453125 L 0.859375 -0.953125 L 1.03125 -0.953125 L 1.234375 -0.453125 C 1.253906 -0.390625 1.273438 -0.332031 1.296875 -0.28125 C 1.304688 -0.3125 1.3125 -0.34375 1.3125 -0.375 C 1.320312 -0.40625 1.335938 -0.4375 1.359375 -0.46875 L 1.59375 -1.140625 Z M 1.796875 -1.140625 "/></g></g></g><g fill="#000000" fill-opacity="1"><g transform="translate(32.336315, 25.502546)"><g><path d="M 0.234375 -1.140625 L 1.09375 -1.140625 L 1.09375 -0.984375 L 0.421875 -0.984375 L 0.421875 -0.671875 L 1 -0.671875 L 1 -0.5 L 0.421875 -0.5 L 0.421875 -0.171875 L 1.09375 -0.171875 L 1.09375 0 L 0.234375 0 Z M 0.234375 -1.140625 "/></g></g></g><g fill="#000000" fill-opacity="1"><g transform="translate(34.287282, 25.502546)"><g><path d="M 0.796875 -1.140625 C 0.929688 -1.140625 1.03125 -1.113281 1.09375 -1.0625 C 1.15625 -1.019531 1.1875 -0.953125 1.1875 -0.859375 C 1.1875 -0.804688 1.171875 -0.757812 1.140625 -0.71875 C 1.117188 -0.675781 1.082031 -0.644531 1.03125 -0.625 C 1.070312 -0.613281 1.109375 -0.59375 1.140625 -0.5625 C 1.171875 -0.539062 1.195312 -0.507812 1.21875 -0.46875 C 1.238281 -0.4375 1.25 -0.394531 1.25 -0.34375 C 1.25 -0.269531 1.234375 -0.210938 1.203125 -0.171875 C 1.179688 -0.128906 1.148438 -0.09375 1.109375 -0.0625 C 1.078125 -0.0390625 1.035156 -0.0234375 0.984375 -0.015625 C 0.929688 -0.00390625 0.878906 0 0.828125 0 L 0.234375 0 L 0.234375 -1.140625 Z M 0.796875 -0.984375 L 0.421875 -0.984375 L 0.421875 -0.671875 L 0.8125 -0.671875 C 0.863281 -0.671875 0.910156 -0.6875 0.953125 -0.71875 C 0.992188 -0.75 1.015625 -0.785156 1.015625 -0.828125 C 1.015625 -0.878906 0.992188 -0.914062 0.953125 -0.9375 C 0.910156 -0.96875 0.859375 -0.984375 0.796875 -0.984375 Z M 0.828125 -0.5 L 0.421875 -0.5 L 0.421875 -0.171875 L 0.828125 -0.171875 C 0.898438 -0.171875 0.957031 -0.179688 1 -0.203125 C 1.050781 -0.234375 1.078125 -0.28125 1.078125 -0.34375 C 1.078125 -0.382812 1.0625 -0.414062 1.03125 -0.4375 C 1.007812 -0.46875 0.976562 -0.484375 0.9375 -0.484375 C 0.894531 -0.492188 0.859375 -0.5 0.828125 -0.5 Z M 0.828125 -0.5 "/></g></g></g><g fill="#000000" fill-opacity="1"><g transform="translate(36.353302, 25.502546)"><g/></g></g><g fill="#000000" fill-opacity="1"><g transform="translate(37.659972, 25.502546)"><g><path d="M 0.765625 -1.140625 C 0.859375 -1.140625 0.941406 -1.125 1.015625 -1.09375 C 1.085938 -1.070312 1.148438 -1.035156 1.203125 -0.984375 C 1.253906 -0.929688 1.289062 -0.867188 1.3125 -0.796875 C 1.34375 -0.722656 1.359375 -0.648438 1.359375 -0.578125 C 1.359375 -0.472656 1.332031 -0.375 1.28125 -0.28125 C 1.238281 -0.195312 1.171875 -0.128906 1.078125 -0.078125 C 0.992188 -0.0234375 0.890625 0 0.765625 0 L 0.234375 0 L 0.234375 -1.140625 Z M 0.75 -0.171875 C 0.851562 -0.171875 0.9375 -0.1875 1 -0.21875 C 1.0625 -0.257812 1.101562 -0.3125 1.125 -0.375 C 1.15625 -0.4375 1.171875 -0.503906 1.171875 -0.578125 C 1.171875 -0.648438 1.15625 -0.710938 1.125 -0.765625 C 1.101562 -0.828125 1.0625 -0.878906 1 -0.921875 C 0.9375 -0.960938 0.851562 -0.984375 0.75 -0.984375 L 0.421875 -0.984375 L 0.421875 -0.171875 Z M 0.75 -0.171875 "/></g></g></g><g fill="#000000" fill-opacity="1"><g transform="translate(39.831184, 25.502546)"><g><path d="M 0.234375 -1.140625 L 1.09375 -1.140625 L 1.09375 -0.984375 L 0.421875 -0.984375 L 0.421875 -0.671875 L 1 -0.671875 L 1 -0.5 L 0.421875 -0.5 L 0.421875 -0.171875 L 1.09375 -0.171875 L 1.09375 0 L 0.234375 0 Z M 0.234375 -1.140625 "/></g></g></g><g fill="#000000" fill-opacity="1"><g transform="translate(41.782151, 25.502546)"><g><path d="M 1.296875 -1.140625 L 0.796875 0 L 0.59375 0 L 0.109375 -1.140625 L 0.296875 -1.140625 L 0.59375 -0.453125 C 0.613281 -0.410156 0.632812 -0.367188 0.65625 -0.328125 C 0.675781 -0.285156 0.691406 -0.238281 0.703125 -0.1875 C 0.722656 -0.238281 0.738281 -0.285156 0.75 -0.328125 C 0.769531 -0.367188 0.789062 -0.410156 0.8125 -0.453125 L 1.078125 -1.140625 Z M 1.296875 -1.140625 "/></g></g></g><g fill="#000000" fill-opacity="1"><g transform="translate(43.833378, 25.502546)"><g><path d="M 0.234375 -1.140625 L 1.09375 -1.140625 L 1.09375 -0.984375 L 0.421875 -0.984375 L 0.421875 -0.671875 L 1 -0.671875 L 1 -0.5 L 0.421875 -0.5 L 0.421875 -0.171875 L 1.09375 -0.171875 L 1.09375 0 L 0.234375 0 Z M 0.234375 -1.140625 "/></g></g></g><g fill="#000000" fill-opacity="1"><g transform="translate(45.784343, 25.502546)"><g><path d="M 1.078125 -0.171875 L 1.078125 0 L 0.234375 0 L 0.234375 -1.140625 L 0.421875 -1.140625 L 0.421875 -0.171875 Z M 1.078125 -0.171875 "/></g></g></g><g fill="#000000" fill-opacity="1"><g transform="translate(47.700794, 25.502546)"><g><path d="M 1.421875 -0.578125 C 1.421875 -0.492188 1.40625 -0.414062 1.375 -0.34375 C 1.34375 -0.269531 1.296875 -0.207031 1.234375 -0.15625 C 1.179688 -0.101562 1.113281 -0.0625 1.03125 -0.03125 C 0.957031 0 0.878906 0.015625 0.796875 0.015625 C 0.691406 0.015625 0.601562 0 0.53125 -0.03125 C 0.457031 -0.0625 0.390625 -0.101562 0.328125 -0.15625 C 0.273438 -0.207031 0.234375 -0.269531 0.203125 -0.34375 C 0.171875 -0.414062 0.15625 -0.492188 0.15625 -0.578125 C 0.15625 -0.660156 0.171875 -0.734375 0.203125 -0.796875 C 0.234375 -0.867188 0.273438 -0.929688 0.328125 -0.984375 C 0.390625 -1.046875 0.457031 -1.09375 0.53125 -1.125 C 0.601562 -1.15625 0.691406 -1.171875 0.796875 -1.171875 C 0.878906 -1.171875 0.957031 -1.15625 1.03125 -1.125 C 1.113281 -1.09375 1.179688 -1.046875 1.234375 -0.984375 C 1.296875 -0.929688 1.34375 -0.867188 1.375 -0.796875 C 1.40625 -0.734375 1.421875 -0.660156 1.421875 -0.578125 Z M 1.25 -0.578125 C 1.25 -0.648438 1.226562 -0.71875 1.1875 -0.78125 C 1.144531 -0.84375 1.085938 -0.894531 1.015625 -0.9375 C 0.953125 -0.976562 0.878906 -1 0.796875 -1 C 0.703125 -1 0.617188 -0.976562 0.546875 -0.9375 C 0.484375 -0.894531 0.429688 -0.84375 0.390625 -0.78125 C 0.347656 -0.71875 0.328125 -0.648438 0.328125 -0.578125 C 0.328125 -0.492188 0.347656 -0.421875 0.390625 -0.359375 C 0.429688 -0.296875 0.484375 -0.242188 0.546875 -0.203125 C 0.617188 -0.171875 0.703125 -0.15625 0.796875 -0.15625 C 0.878906 -0.15625 0.953125 -0.171875 1.015625 -0.203125 C 1.085938 -0.242188 1.144531 -0.296875 1.1875 -0.359375 C 1.226562 -0.421875 1.25 -0.492188 1.25 -0.578125 Z M 1.25 -0.578125 "/></g></g></g><g fill="#000000" fill-opacity="1"><g transform="translate(49.937747, 25.502546)"><g><path d="M 0.8125 -1.140625 C 0.882812 -1.140625 0.945312 -1.125 1 -1.09375 C 1.050781 -1.070312 1.09375 -1.03125 1.125 -0.96875 C 1.15625 -0.914062 1.171875 -0.859375 1.171875 -0.796875 C 1.171875 -0.722656 1.15625 -0.660156 1.125 -0.609375 C 1.09375 -0.554688 1.046875 -0.515625 0.984375 -0.484375 C 0.929688 -0.453125 0.867188 -0.4375 0.796875 -0.4375 L 0.421875 -0.4375 L 0.421875 0 L 0.234375 0 L 0.234375 -1.140625 Z M 0.796875 -0.59375 C 0.828125 -0.59375 0.859375 -0.601562 0.890625 -0.625 C 0.921875 -0.644531 0.941406 -0.671875 0.953125 -0.703125 C 0.972656 -0.734375 0.984375 -0.765625 0.984375 -0.796875 C 0.984375 -0.828125 0.972656 -0.851562 0.953125 -0.875 C 0.941406 -0.90625 0.921875 -0.929688 0.890625 -0.953125 C 0.859375 -0.972656 0.828125 -0.984375 0.796875 -0.984375 L 0.421875 -0.984375 L 0.421875 -0.59375 Z M 0.796875 -0.59375 "/></g></g></g><g fill="#000000" fill-opacity="1"><g transform="translate(51.931447, 25.502546)"><g><path d="M 0.234375 -1.140625 L 1.09375 -1.140625 L 1.09375 -0.984375 L 0.421875 -0.984375 L 0.421875 -0.671875 L 1 -0.671875 L 1 -0.5 L 0.421875 -0.5 L 0.421875 -0.171875 L 1.09375 -0.171875 L 1.09375 0 L 0.234375 0 Z M 0.234375 -1.140625 "/></g></g></g><g fill="#000000" fill-opacity="1"><g transform="translate(53.882411, 25.502546)"><g><path d="M 1.203125 -0.796875 C 1.203125 -0.710938 1.175781 -0.640625 1.125 -0.578125 C 1.082031 -0.515625 1.023438 -0.472656 0.953125 -0.453125 L 1.25 0 L 1.03125 0 L 0.75 -0.421875 L 0.421875 -0.421875 L 0.421875 0 L 0.234375 0 L 0.234375 -1.140625 L 0.828125 -1.140625 C 0.890625 -1.140625 0.945312 -1.125 1 -1.09375 C 1.0625 -1.070312 1.109375 -1.03125 1.140625 -0.96875 C 1.179688 -0.914062 1.203125 -0.859375 1.203125 -0.796875 Z M 0.78125 -0.984375 L 0.421875 -0.984375 L 0.421875 -0.59375 L 0.8125 -0.59375 C 0.84375 -0.59375 0.875 -0.601562 0.90625 -0.625 C 0.9375 -0.644531 0.960938 -0.664062 0.984375 -0.6875 C 1.003906 -0.71875 1.015625 -0.753906 1.015625 -0.796875 C 1.015625 -0.828125 1.003906 -0.859375 0.984375 -0.890625 C 0.960938 -0.921875 0.929688 -0.941406 0.890625 -0.953125 C 0.859375 -0.972656 0.820312 -0.984375 0.78125 -0.984375 Z M 0.78125 -0.984375 "/></g></g></g></svg>